<svg id="assign" xmlns="http://www.w3.org/2000/svg" xmlns:xlink="http://www.w3.org/1999/xlink" width="47" height="47" viewBox="0 0 47 47">
  <defs>
    <clipPath id="clip-path">
      <path id="icon_social_people_outline_24px" data-name="icon/social/people_outline_24px" d="M12.6,11.025V9.647a3.3,3.3,0,0,0-1.543-2.709c1.938.212,4.693,1.118,4.693,2.709v.59a.79.79,0,0,1-.787.788Zm-11.813,0A.79.79,0,0,1,0,10.238v-.59C0,7.812,3.669,6.89,5.513,6.89s5.513.922,5.513,2.757v.59a.79.79,0,0,1-.788.788ZM9.056,5.237a4.3,4.3,0,0,0,0-4.962A2.721,2.721,0,0,1,10.238,0a2.756,2.756,0,0,1,0,5.513A2.721,2.721,0,0,1,9.056,5.237Zm-6.3-2.481A2.756,2.756,0,1,1,5.513,5.513,2.76,2.76,0,0,1,2.756,2.756Z" transform="translate(16.938 18.907)" fill="#49a652"/>
    </clipPath>
  </defs>
  <circle id="Oval" cx="23.5" cy="23.5" r="23.5" fill="#49a652" opacity="0.204"/>
  <path id="icon_social_people_outline_24px-2" data-name="icon/social/people_outline_24px" d="M12.6,11.025V9.647a3.3,3.3,0,0,0-1.543-2.709c1.938.212,4.693,1.118,4.693,2.709v.59a.79.79,0,0,1-.787.788Zm-11.813,0A.79.79,0,0,1,0,10.238v-.59C0,7.812,3.669,6.89,5.513,6.89s5.513.922,5.513,2.757v.59a.79.79,0,0,1-.788.788ZM9.056,5.237a4.3,4.3,0,0,0,0-4.962A2.721,2.721,0,0,1,10.238,0a2.756,2.756,0,0,1,0,5.513A2.721,2.721,0,0,1,9.056,5.237Zm-6.3-2.481A2.756,2.756,0,1,1,5.513,5.513,2.76,2.76,0,0,1,2.756,2.756Z" transform="translate(16.938 18.907)" fill="#49a652"/>
</svg>
