<svg xmlns="http://www.w3.org/2000/svg" xmlns:xlink="http://www.w3.org/1999/xlink" width="8.8" height="16" viewBox="0 0 8.8 16">
  <defs>
    <clipPath id="clip-path">
      <path id="icon_social_facebook_24px" data-name="icon/social/facebook_24px" d="M7.8,0a1,1,0,0,1,1,1V2.2a1,1,0,0,1-1,1H6.4c-.552,0-.8.648-.8,1.2v2H7a1,1,0,0,1,1,1V8.6a1,1,0,0,1-1,1H5.6V15a1,1,0,0,1-1,1H3.4a1,1,0,0,1-1-1V9.6H1a1,1,0,0,1-1-1V7.4a1,1,0,0,1,1-1H2.4V3.2A3.2,3.2,0,0,1,5.6,0Z" transform="translate(0.6)" fill="#4267b2"/>
    </clipPath>
  </defs>
  <g id="facebook" transform="translate(-0.6)">
    <path id="icon_social_facebook_24px-2" data-name="icon/social/facebook_24px" d="M7.8,0a1,1,0,0,1,1,1V2.2a1,1,0,0,1-1,1H6.4c-.552,0-.8.648-.8,1.2v2H7a1,1,0,0,1,1,1V8.6a1,1,0,0,1-1,1H5.6V15a1,1,0,0,1-1,1H3.4a1,1,0,0,1-1-1V9.6H1a1,1,0,0,1-1-1V7.4a1,1,0,0,1,1-1H2.4V3.2A3.2,3.2,0,0,1,5.6,0Z" transform="translate(0.6)" fill="#4267b2"/>
  </g>
</svg>
