<svg id="Group_2" data-name="Group 2" xmlns="http://www.w3.org/2000/svg" xmlns:xlink="http://www.w3.org/1999/xlink" width="47" height="47" viewBox="0 0 47 47">
  <defs>
    <clipPath id="clip-path">
      <path id="icon_image_edit_24px" data-name="icon/image/edit_24px" d="M.437,15.752A.433.433,0,0,1,0,15.314v-2.66a.43.43,0,0,1,.131-.315L9.678,2.794l3.281,3.281L3.4,15.621a.411.411,0,0,1-.306.13ZM10.614,1.858l1.6-1.6a.872.872,0,0,1,1.234,0L15.5,2.3a.872.872,0,0,1,0,1.234l-1.6,1.6Z" transform="translate(15.625 15.625)" fill="#fff"/>
    </clipPath>
  </defs>
  <circle id="Oval" cx="23.5" cy="23.5" r="23.5" fill="#7796fe"/>
  <path id="icon_image_edit_24px-2" data-name="icon/image/edit_24px" d="M.437,15.752A.433.433,0,0,1,0,15.314v-2.66a.43.43,0,0,1,.131-.315L9.678,2.794l3.281,3.281L3.4,15.621a.411.411,0,0,1-.306.13ZM10.614,1.858l1.6-1.6a.872.872,0,0,1,1.234,0L15.5,2.3a.872.872,0,0,1,0,1.234l-1.6,1.6Z" transform="translate(15.625 15.625)" fill="#fff"/>
</svg>
