<svg xmlns="http://www.w3.org/2000/svg" xmlns:xlink="http://www.w3.org/1999/xlink" width="785.375" height="804.178" viewBox="0 0 785.375 804.178">
  <defs>
    <clipPath id="clip-path">
      <path id="Clip_40" data-name="Clip 40" d="M0,0H685.656V52.692H0Z" transform="translate(0 0.461)" fill="none"/>
    </clipPath>
    <clipPath id="clip-path-2">
      <path id="Clip_81" data-name="Clip 81" d="M0,804.178H785.375V0H0Z" transform="translate(0 0.714)" fill="none"/>
    </clipPath>
    <clipPath id="clip-path-3">
      <path id="Clip_150" data-name="Clip 150" d="M210.9,98.556H12.9a14.044,14.044,0,0,1-9.119-3.209A10.129,10.129,0,0,1,0,87.6V10.959A10.133,10.133,0,0,1,3.777,3.21,14.042,14.042,0,0,1,12.9,0a14.036,14.036,0,0,1,9.116,3.21,10.134,10.134,0,0,1,3.776,7.75v47.9c0,6.041,5.784,10.957,12.893,10.957h78.405c6.791,0,12.443-4.506,12.868-10.259.019-36.64.025-45.868.026-47.823v-.775a10.133,10.133,0,0,1,3.778-7.75A14.039,14.039,0,0,1,142.875,0H210.9a14.043,14.043,0,0,1,9.119,3.21,10.133,10.133,0,0,1,3.777,7.75V87.6a10.129,10.129,0,0,1-3.777,7.747A14.044,14.044,0,0,1,210.9,98.556Z" transform="translate(0.982 0.194)" fill="none"/>
    </clipPath>
    <linearGradient id="linear-gradient" x1="-0.021" y1="0.287" x2="1.045" y2="0.722" gradientUnits="objectBoundingBox">
      <stop offset="0" stop-color="#f47938"/>
      <stop offset="1" stop-color="#fffb4d"/>
    </linearGradient>
    <clipPath id="clip-path-4">
      <path id="Clip_232" data-name="Clip 232" d="M0,0,44.408,74.088V68.5L3.073,0Z" transform="translate(0.294 0.579)" fill="none"/>
    </clipPath>
    <linearGradient id="linear-gradient-2" x1="1" y1="0.5" x2="0" y2="0.5" gradientUnits="objectBoundingBox">
      <stop offset="0" stop-color="#a8a5dd"/>
      <stop offset="1" stop-color="#bcb8f2"/>
    </linearGradient>
  </defs>
  <g id="mobileApp" transform="translate(0 -0.714)">
    <g id="Group_148" data-name="Group 148">
      <path id="Fill_1" data-name="Fill 1" d="M190.478,594.421a4.994,4.994,0,0,1-4.991-5V26.215L8.713,224.562a4.992,4.992,0,1,1-7.447-6.65L195.469,0V589.425a4.994,4.994,0,0,1-4.991,5" transform="translate(541.974 104.269)" fill="#7fcdff"/>
      <path id="Fill_3" data-name="Fill 3" d="M47.553,88.076,25.66,76.733C11.741,54.514.947,28.421,0,.23A230.822,230.822,0,0,1,43.992,2.5L58.733,20.026,59.91,5.7C71.353,8.627,82.5,13.008,91.338,19.545l1.595,28.642,9.122-17.932a40.242,40.242,0,0,1,4.391,7.856c18.213,43.434,31.683,99.623,31.683,99.623L92.853,149.424a296.366,296.366,0,0,1-53.318-52.9Z" transform="translate(145.691 629.076)" fill="#ad2500"/>
      <path id="Fill_5" data-name="Fill 5" d="M83.226,130.386c12.38,2.594,20.234.612,23-.342-18.8-14.705-36.994-34.8-51.85-53.293-.669.205-1.337.393-2,.565C40.033,80.5,29.03,77.792,20.7,73.881q-.708-1.164-1.405-2.339c8.578,4.448,20.553,7.923,34.091,3.97-4.337-5.434-8.531-10.9-12.655-16.465-10.7,1.335-22.535-2.29-31.029-5.829q-.46-1.014-.91-2.035c8.224,3.557,20.231,7.552,30.929,6.5C18.8,29.3,4.182,5.775,4.029,5.514L0,.427,4.62,3.49c.267.456,12.213,19.5,28.982,43.11C36.027,33.963,26.041,7.192,23.22,0c.543.038,1.089.077,1.64.123C28.167,8.574,38.183,35.881,34.74,48.2A556.84,556.84,0,0,0,72.276,95.519C74.6,88.8,58.716,53.311,65.532,35.933c4.159-10.6,2.344-21.229.212-28.054.574.2,1.147.4,1.716.6,2.053,7.069,3.548,17.527-.554,27.986-6.866,17.51,10.329,53.909,6.428,60.23q4.111,4.549,8.336,8.928C83.7,69.5,83.252,68.352,78.391,55.495c-2.8-7.4-5.437-14.379-1.652-20.771,3.284-5.548,2.493-14.654,1.077-21.84q.858.431,1.7.881c1.313,7.22,1.851,16.034-1.505,21.706-6.029,10.181,6.12,22.431,6.164,37.7.041,13.829-.939,31.052-1.106,33.886,5.758,5.891,11.646,11.466,17.589,16.535,1.408-1.977,7.045-11.291.907-26.239-4.985-12.137,2.681-31.209,8.188-42.321.244.656.484,1.312.724,1.971C105.166,68.068,98.4,85.76,102.93,96.8c6.554,15.96.379,25.711-1.141,27.758a154.954,154.954,0,0,0,21.586,15.46l-2.012.519q-1.907-1.139-3.809-2.374c-5.138,3.192-14.034,4.5-24.27.354a21.055,21.055,0,0,0-16.4.286q-.6-.522-1.229-1.066a22.625,22.625,0,0,1,18.184-.585c11.643,4.715,19.688,1.494,22.324.1-2.862-1.9-5.721-3.961-8.566-6.143-6.912,2.913-17.122,2.3-24.679.72a31.233,31.233,0,0,0-13.556.261q-.635-.585-1.282-1.191a32.925,32.925,0,0,1,15.145-.512" transform="translate(149.265 629.682)" fill="#a7cbd3"/>
      <path id="Fill_7" data-name="Fill 7" d="M0,7.6,3.865,0a40.158,40.158,0,0,1,4.39,7.856C26.469,51.29,39.939,107.48,39.939,107.48S11.675,71.045,0,7.6" transform="translate(243.882 659.329)" fill="#195f6d"/>
      <path id="Fill_9" data-name="Fill 9" d="M130.233.376c-1.909.492-29.4-5.584-67.681,17.477A254.65,254.65,0,0,0,0,71.882s49.759-3.1,91.294-21.421S130.233.376,130.233.376" transform="translate(293.137 692.522)" fill="#004a58"/>
      <path id="Fill_11" data-name="Fill 11" d="M.075,64.469C22.477,38.758,59.146,8.492,94.373,0,92.361,22.672,86.343,40.348,69,54.727,39.725,64.5,10.491,68.036,0,69.057c0-1.418.018-2.952.074-4.588" transform="translate(297.143 695.281)" fill="#003842"/>
      <path id="Fill_13" data-name="Fill 13" d="M4.672,134.232l22.607,14.107L10.194,111.092A201.263,201.263,0,0,1,23.94,75.727C39.141,45.958,68.468,0,68.468,0a239.5,239.5,0,0,1,32.452,47.817L86.226,73.324l22.53-8.277c50.96,126.9-45.937,247.284-45.937,247.284L38.156,318.7S-.481,214.666,0,179.576a264.258,264.258,0,0,1,4.667-45.344" transform="translate(245.665 448.107)" fill="#e0aa1a"/>
      <path id="Fill_15" data-name="Fill 15" d="M.838,191.33c-.307-2.191-.545-4.272-.71-6.223,8.881,12.944,31.507,43.78,48.782,48.936q.212-2.346.458-4.7C33.056,227.689,11.524,193.933,0,173.68q.1-2.763.256-5.551c12.341,22.242,34.637,56.964,49.435,58.294a204.335,204.335,0,0,1,6.95-35.307c2.736-9.028,4.822-21.014,6.4-34.586-15.388-6.483-35.954-45.571-46.03-66.52q.722-1.8,1.469-3.576C27.8,106,48.8,146.293,63.39,153.458c1.086-9.976,1.919-20.725,2.548-31.732C50.8,108.211,38.267,74.547,32.844,58.209q.976-1.747,1.979-3.508c4.645,14.259,16.837,48.427,31.326,63.149C69.044,62.739,68,3.169,67.971,2.254L68.534,0l.54,2.15c.035,1.027,3.428,75.93-1.275,135.614,23.072,1.578,42.5-19.368,52.468-32.75q.36,2.032.672,4.055a125.009,125.009,0,0,1-8.986,10.386c-10.2,10.524-20.827,17.266-31.328,19.976A40.856,40.856,0,0,1,67.563,140.7c-1.352,16.159-3.252,31.038-5.895,42.8,20.852,1.712,46.775-12.874,60.906-22.131q-.171,1.916-.366,3.815c-10.289,6.62-25.6,15.193-41.045,19.181A59.577,59.577,0,0,1,60.986,186.4c-.484,1.956-.991,3.815-1.517,5.563C45.119,239.3,51.923,307.839,52.6,314.182l-2.889.746c-.2-1.8-4.2-38.87-1.052-77.9C32,232.507,11.438,206.278.838,191.33" transform="translate(245.795 448.865)" fill="#cfd5f1"/>
      <path id="Fill_17" data-name="Fill 17" d="M23.551,127.474.583,133.405S-6.731,82.878,30.463,38.4l7.705,7.18L35.681,32.515q3.325-3.535,7.062-6.984L54.175,40.337,51.7,17.928A168.35,168.35,0,0,1,80.3,0C67.092,72.246,25.131,125.49,23.551,127.474" transform="translate(284.993 632.951)" fill="#6670a4"/>
      <path id="Fill_19" data-name="Fill 19" d="M65.435,5.259,75.712,25.266,77.583,8.531a142.6,142.6,0,0,1,20.808,8.228l4.426,10.122,4.68-5.136C126.076,33,142.076,49.932,150.369,75.28l-38.123,9.845S24.416,83.61,0,.732A218.55,218.55,0,0,1,65.435,5.259" transform="translate(122.014 694.481)" fill="#469aa8"/>
      <path id="Fill_21" data-name="Fill 21" d="M133.822,78l-6.37,1.646C76.363,66.956,7.359,6.635,4.337,3.976L0,0,6.293,1.766C7.056,2.436,83.142,68.955,133.822,78" transform="translate(123.881 695.554)" fill="#a7cbd3"/>
      <path id="Fill_23" data-name="Fill 23" d="M26.106,40.547l6.6,6.154L30.577,35.506q2.845-3.025,6.05-5.984L46.419,42.21l-2.12-19.2C55.4,14.321,69.248,6.409,86.5,0c0,0,9.537,52.769-7.462,81.481S25.282,115.5,25.282,115.5L.5,121.9S-5.756,78.655,26.106,40.547" transform="translate(292.669 642.73)" fill="#e0aa1a"/>
      <path id="Fill_25" data-name="Fill 25" d="M3.746,114.937,0,115.9C44.932,64.252,64.538,3.059,64.734,2.436L67.174,0l-.326,3.094c-.193.618-19.325,60.356-63.1,111.843" transform="translate(311.436 644.012)" fill="#f3dda3"/>
      <path id="Fill_27" data-name="Fill 27" d="M0,106.557S20.342,48.931,48.04,24.169,131.748,0,131.748,0s-5.2,11.8-14.1,27.476L96.83,30.453l14.617,7.519c-14.617,23.8-35.886,51.862-59.669,62.261C7.425,119.625,0,106.557,0,106.557" transform="translate(292.395 657.638)" fill="#ad2500"/>
      <path id="Fill_29" data-name="Fill 29" d="M0,104.414c.006-.017.255-.741,1.1-2.971,7.121-8.512,30.314-35.708,52.548-57.492.666-6.536-4.233-14.163-8.37-19.322q.915-.909,1.847-1.766c3.9,4.834,8.526,11.887,9.051,18.631,1.036-1,8.594-7.779,11.344-9.924.92-6.675-4.045-13.038-8.57-17.326q1.154-.665,2.338-1.294c4.261,4.172,8.71,10.073,8.861,16.62,2.705-2.014,5.44-3.9,8.17-5.669,4.036-5.93,2.614-13.167.687-18.227q1.227-.387,2.458-.747c1.7,4.515,3,10.615.956,16.4,2.443-1.485,4.866-2.872,7.244-4.166,4.487-8.424,4.751-13.05,4.323-15.331.836-.172,1.669-.337,2.493-.494.483,2.571.2,6.893-3,13.8A258.672,258.672,0,0,1,124.6,1.5L129.878,0l-5.059,4.447c-.354.1-32.8,9.653-59.61,32.229,11.638-1.607,25.486,6.182,33.485,10.679,1.331.747,2.756,1.551,3.883,2.128q-.722,1.043-1.452,2.09c-.976-.507-2.173-1.175-3.672-2.02-8.889-5-25.334-14.244-36.6-9.035C59.489,41.781,52.815,48.3,51.22,49.9c11.483-1.156,31.085,8.3,41,13.592q-.794,1-1.608,1.991c-13.1-6.934-35.036-16.658-42.955-11.97C23.777,77.93,0,104.414,0,104.414" transform="translate(292.395 659.78)" fill="#de9c8c"/>
      <path id="Fill_31" data-name="Fill 31" d="M45.91,91.9a45.948,45.948,0,1,1,45.91-45.947A45.979,45.979,0,0,1,45.91,91.9" transform="translate(141.711 388.759)" fill="#fff"/>
      <path id="Fill_33" data-name="Fill 33" d="M45.91,91.9A45.949,45.949,0,1,1,91.821,45.949,45.983,45.983,0,0,1,45.91,91.9" transform="translate(686.542 71.429)" fill="#fff"/>
      <path id="Fill_35" data-name="Fill 35" d="M6.347,8.624a1.469,1.469,0,0,1-.97-.384C3.912,6.971,2.392,5.7.868,4.468a2.912,2.912,0,0,1-.612-3.3A1.558,1.558,0,0,1,2.713.345C4.27,1.6,5.819,2.9,7.32,4.2a2.938,2.938,0,0,1,.533,3.324,1.732,1.732,0,0,1-1.505,1.1" transform="translate(339.281 152.627)" fill="#99d7ff"/>
      <path id="Fill_37" data-name="Fill 37" d="M91.867,404.2a1.444,1.444,0,0,1-.85-.288c-3.842-2.787-6.981-5.1-9.33-6.888a2.889,2.889,0,0,1-.677-3.277,1.788,1.788,0,0,1,1.561-1.222,1.45,1.45,0,0,1,.879.311c2.4,1.82,5.517,4.121,9.27,6.84a2.875,2.875,0,0,1,.724,3.262A1.794,1.794,0,0,1,91.867,404.2ZM69.84,385.939a1.5,1.5,0,0,1-1.067-.472c-2.877-2.867-5.705-5.832-8.408-8.815a3.008,3.008,0,0,1-.248-3.385,1.658,1.658,0,0,1,1.387-.88,1.545,1.545,0,0,1,1.137.547c2.646,2.923,5.427,5.839,8.265,8.666a2.988,2.988,0,0,1,.373,3.367A1.686,1.686,0,0,1,69.84,385.939ZM50.082,363.576a1.574,1.574,0,0,1-1.239-.671c-2.582-3.329-5.1-6.77-7.485-10.228a3.014,3.014,0,0,1,.1-3.4,1.567,1.567,0,0,1,1.217-.643,1.627,1.627,0,0,1,1.314.772c2.372,3.434,4.84,6.808,7.338,10.028a3.024,3.024,0,0,1,.051,3.4A1.6,1.6,0,0,1,50.082,363.576ZM32.791,337.8a1.664,1.664,0,0,1-1.417-.936c-2.189-3.8-4.3-7.72-6.261-11.645a2.96,2.96,0,0,1,.488-3.339,1.484,1.484,0,0,1,1-.408,1.727,1.727,0,0,1,1.489,1.061c1.914,3.826,3.973,7.658,6.119,11.39a2.982,2.982,0,0,1-.323,3.373A1.5,1.5,0,0,1,32.791,337.8ZM18.72,308.711a1.8,1.8,0,0,1-1.581-1.27c-1.694-4.251-3.277-8.6-4.707-12.918a2.791,2.791,0,0,1,.905-3.177,1.4,1.4,0,0,1,.729-.21,1.856,1.856,0,0,1,1.637,1.428c1.423,4.289,2.968,8.53,4.593,12.605a2.866,2.866,0,0,1-.733,3.256A1.447,1.447,0,0,1,18.72,308.711ZM8.609,276.782A1.931,1.931,0,0,1,6.9,275.115c-1.086-4.526-2.062-9.187-2.9-13.855a2.539,2.539,0,0,1,1.319-2.9,1.379,1.379,0,0,1,.423-.067,1.985,1.985,0,0,1,1.741,1.84c.816,4.536,1.767,9.081,2.828,13.508a2.648,2.648,0,0,1-1.155,3.029A1.409,1.409,0,0,1,8.609,276.782Zm-5.658-33.85a2.073,2.073,0,0,1-1.772-2.091c-.1-1.057-.2-2.13-.3-3.278-.312-3.646-.553-7.359-.717-11.036a2.266,2.266,0,0,1,1.679-2.547c.033,0,.066,0,.1,0,.95,0,1.738.992,1.794,2.259.163,3.593.4,7.221.7,10.783.087,1.025.185,2.1.291,3.195a2.377,2.377,0,0,1-1.54,2.7A1.528,1.528,0,0,1,2.951,242.933ZM1.794,208.268c-.024,0-.048,0-.072,0A2.235,2.235,0,0,1,0,205.768c.14-4.749.406-9.571.789-14.332.1-1.224.863-2.147,1.779-2.147a1.371,1.371,0,0,1,.2.014,2.339,2.339,0,0,1,1.587,2.651c-.375,4.642-.634,9.353-.77,14C3.543,207.253,2.758,208.268,1.794,208.268Zm3.157-34.436a1.314,1.314,0,0,1-.365-.05A2.489,2.489,0,0,1,3.2,170.939c.717-4.652,1.562-9.349,2.513-13.963a1.972,1.972,0,0,1,1.724-1.765,1.375,1.375,0,0,1,.479.088,2.583,2.583,0,0,1,1.247,2.958c-.932,4.534-1.759,9.129-2.456,13.658A2.022,2.022,0,0,1,4.951,173.832Zm7.241-33.312a1.4,1.4,0,0,1-.636-.157,2.725,2.725,0,0,1-1.038-3.106c1.253-4.428,2.639-8.888,4.118-13.254a1.855,1.855,0,0,1,1.632-1.409,1.41,1.41,0,0,1,.741.216A2.8,2.8,0,0,1,17.9,126c-1.455,4.293-2.811,8.657-4.03,12.971A1.906,1.906,0,0,1,12.192,140.521Zm11.032-31.383a1.457,1.457,0,0,1-.886-.316,2.893,2.893,0,0,1-.67-3.282c1.754-4.129,3.635-8.249,5.589-12.245a1.735,1.735,0,0,1,1.5-1.084,1.473,1.473,0,0,1,.979.394,2.948,2.948,0,0,1,.513,3.333c-1.9,3.892-3.745,7.925-5.472,11.986A1.778,1.778,0,0,1,23.224,109.138ZM37.719,80.4A1.538,1.538,0,0,1,36.6,79.88a3,3,0,0,1-.286-3.38c2.215-3.742,4.543-7.426,6.919-10.952a1.631,1.631,0,0,1,1.328-.793,1.567,1.567,0,0,1,1.2.623,3.023,3.023,0,0,1,.127,3.4c-2.336,3.464-4.615,7.07-6.773,10.715A1.665,1.665,0,0,1,37.719,80.4Zm17.617-25.4a1.63,1.63,0,0,1-1.327-.788,3.026,3.026,0,0,1,.124-3.4c2.646-3.223,5.419-6.325,8.24-9.22a1.512,1.512,0,0,1,1.087-.494,1.675,1.675,0,0,1,1.424.944,2.986,2.986,0,0,1-.337,3.371c-2.752,2.826-5.446,5.842-8.007,8.964A1.574,1.574,0,0,1,55.336,55.009ZM306.8,38.757a1.425,1.425,0,0,1-.8-.253c-3.092-2.066-6.29-4.066-9.507-5.944a2.785,2.785,0,0,1-.928-3.165,1.86,1.86,0,0,1,1.644-1.448,1.4,1.4,0,0,1,.713.2c3.293,1.923,6.547,3.958,9.673,6.049a2.835,2.835,0,0,1,.806,3.226A1.806,1.806,0,0,1,306.8,38.757ZM76.134,34.476a1.777,1.777,0,0,1-1.544-1.185A2.905,2.905,0,0,1,75.224,30c3.015-2.385,6.194-4.671,9.448-6.8a1.421,1.421,0,0,1,.781-.241,1.819,1.819,0,0,1,1.614,1.354,2.83,2.83,0,0,1-.83,3.217c-3.137,2.045-6.231,4.27-9.2,6.612A1.471,1.471,0,0,1,76.134,34.476ZM288.216,27.23a1.377,1.377,0,0,1-.6-.139c-3.256-1.55-6.611-3.035-9.972-4.414a2.628,2.628,0,0,1-1.188-3,1.938,1.938,0,0,1,1.71-1.706,1.374,1.374,0,0,1,.527.107c3.437,1.412,6.842,2.92,10.12,4.481a2.691,2.691,0,0,1,1.091,3.071A1.916,1.916,0,0,1,288.216,27.23ZM99.538,19.84a1.912,1.912,0,0,1-1.686-1.593,2.7,2.7,0,0,1,1.08-3.077c3.29-1.585,6.717-3.062,10.186-4.39a1.374,1.374,0,0,1,.491-.092,1.967,1.967,0,0,1,1.723,1.747,2.6,2.6,0,0,1-1.232,2.973c-3.371,1.289-6.721,2.733-9.957,4.291A1.392,1.392,0,0,1,99.538,19.84Zm163.893-2.472a1.369,1.369,0,0,1-.425-.067c-3.31-1.08-6.763-2.114-10.262-3.074a2.491,2.491,0,0,1-1.4-2.839A2.026,2.026,0,0,1,253.1,9.461a1.367,1.367,0,0,1,.361.049c3.48.954,6.976,2,10.39,3.113a2.544,2.544,0,0,1,1.318,2.905A1.989,1.989,0,0,1,263.431,17.367ZM124.472,10.742a2.033,2.033,0,0,1-1.758-1.947,2.473,2.473,0,0,1,1.416-2.821c3.426-.9,6.967-1.7,10.525-2.381a1.354,1.354,0,0,1,.248-.023,2.074,2.074,0,0,1,1.78,2.064,2.394,2.394,0,0,1-1.521,2.722c-3.5.672-6.986,1.459-10.345,2.34A1.342,1.342,0,0,1,124.472,10.742Zm113.587-.068a1.3,1.3,0,0,1-.274-.029c-3.431-.706-6.94-1.352-10.43-1.922a2.366,2.366,0,0,1-1.561-2.681,2.084,2.084,0,0,1,1.792-2.112,1.37,1.37,0,0,1,.2.015c3.556.583,7.1,1.237,10.54,1.946a2.406,2.406,0,0,1,1.5,2.742A2.069,2.069,0,0,1,238.059,10.673ZM212.367,6.681a1.339,1.339,0,0,1-.146-.008c-3.482-.374-7.02-.693-10.516-.949a2.258,2.258,0,0,1-1.69-2.534c.052-1.3.838-2.274,1.827-2.274h.059c3.594.265,7.163.588,10.607.96a2.292,2.292,0,0,1,1.642,2.59A2.117,2.117,0,0,1,212.367,6.681ZM150.1,6.133a2.12,2.12,0,0,1-1.785-2.214,2.3,2.3,0,0,1,1.642-2.591c3.435-.37,7.012-.665,10.63-.879.031,0,.063,0,.095,0,.935,0,1.731,1.033,1.775,2.3a2.242,2.242,0,0,1-1.712,2.508c-3.59.212-7.122.5-10.5.868A1.35,1.35,0,0,1,150.1,6.133ZM186.53,4.966h-.04c-3.465-.1-6.82-.155-9.972-.155h-.57c-.987,0-1.79-1.079-1.79-2.406S174.961,0,175.948,0h.57c3.241,0,6.623.052,10.049.155.986.03,1.772,1.133,1.752,2.457C188.3,3.91,187.5,4.966,186.53,4.966Z" transform="translate(15.646 106.829)" fill="#99d7ff"/>
      <g id="Group_41" data-name="Group 41" transform="translate(0 751.738)">
        <path id="Clip_40-2" data-name="Clip 40" d="M0,0H685.656V52.692H0Z" transform="translate(0 0.461)" fill="none"/>
        <g id="Group_41-2" data-name="Group 41" clip-path="url(#clip-path)">
          <path id="Fill_39" data-name="Fill 39" d="M685.656,26.346c0,14.552-153.488,26.347-342.829,26.347S0,40.9,0,26.346,153.488,0,342.827,0,685.656,11.8,685.656,26.346" transform="translate(0 0.461)" fill="#f78500"/>
        </g>
      </g>
      <path id="Fill_42" data-name="Fill 42" d="M45.91,91.9A45.949,45.949,0,1,1,91.821,45.949,45.981,45.981,0,0,1,45.91,91.9" transform="translate(686.542 420.048)" fill="#fff"/>
      <path id="Fill_44" data-name="Fill 44" d="M80.635,40.351A40.317,40.317,0,1,1,40.318,0,40.333,40.333,0,0,1,80.635,40.351" transform="translate(692.134 425.646)" fill="#99d7ff"/>
      <path id="Fill_46" data-name="Fill 46" d="M13.728,51.761v0c-.035-.077-3.5-7.769-6.863-16.163C3.733,27.789,0,17.66,0,13.741a13.727,13.727,0,1,1,27.454,0c0,3.919-3.732,14.048-6.863,21.855-3.366,8.393-6.827,16.086-6.862,16.163Zm-.217-47.8A6.592,6.592,0,1,0,20.1,10.55,6.6,6.6,0,0,0,13.511,3.959Z" transform="translate(718.941 440.116)" fill="#fff"/>
      <path id="Fill_48" data-name="Fill 48" d="M45.91,91.9a45.949,45.949,0,1,1,45.91-45.949A45.981,45.981,0,0,1,45.91,91.9" transform="translate(141.711 242.885)" fill="#fff"/>
      <path id="Fill_50" data-name="Fill 50" d="M80.635,40.351A40.317,40.317,0,1,1,40.318,0,40.333,40.333,0,0,1,80.635,40.351" transform="translate(147.303 249.516)" fill="#99d7ff"/>
      <path id="Fill_52" data-name="Fill 52" d="M8.75.563c1.769,3.863,11.236,23.755,20.469,28.3.379.187,9.823,1.461,10.209,1.645,10.321,4.91,11,4.732,11,5.627,0,.747.319,1.859-.687,2.158-1.809.539-7.763,1.693-24.368.952a.967.967,0,0,1-.815-.521c-7.667-14.945-16.1-20.159-16.1-16.839,0,17.184.408,17.6-.964,17.6-.684-.106-2.373.407-2.481-.882-.358-4.293-2-22.882-3.636-24.522C-.435,12.27-2.085,1.617,7.716.013A.961.961,0,0,1,8.75.563" transform="translate(156.321 269.092)" fill="#fff"/>
      <path id="Fill_54" data-name="Fill 54" d="M0,0C.86,8.306.473,8.86,1.706,8.86c.649-.112,2.484.431,2.484-.964V6.377A65.889,65.889,0,0,0,0,0" transform="translate(172.947 298.816)" fill="#fff"/>
      <path id="Fill_56" data-name="Fill 56" d="M38.566,30.424c-10.194-1.57-9.7-1.443-9.94-1.561C19.391,24.317,9.925,4.426,8.154.562A.963.963,0,0,0,7.123.013C3,.687.912,2.96,0,5.5A96.985,96.985,0,0,0,9.789,21.23C12.353,22.378,14.923,25,17.171,27.9c12.553,1.91,7.069.266,19.6,6.16a2.991,2.991,0,0,1,2.724,2.977,5.983,5.983,0,0,1-.234,2.378c5.988-.2,8.751-.784,9.884-1.121,1.011-.3.7-1.491.687-2.158,0-1.036-11-5.669-11.265-5.709" transform="translate(169.276 268.192)" fill="#fff"/>
      <path id="Fill_58" data-name="Fill 58" d="M80.635,40.351A40.317,40.317,0,1,1,40.318,0,40.333,40.333,0,0,1,80.635,40.351" transform="translate(692.134 77.027)" fill="#99d7ff"/>
      <path id="Fill_60" data-name="Fill 60" d="M80.635,40.351A40.317,40.317,0,1,1,40.318,0,40.333,40.333,0,0,1,80.635,40.351" transform="translate(147.303 393.546)" fill="#99d7ff"/>
      <path id="Fill_62" data-name="Fill 62" d="M16.143,43.466v0h0L0,24.07,27.221,1.37a5.9,5.9,0,0,1,8.319.758l8.585,10.311a5.925,5.925,0,0,1-.757,8.327ZM35.717,7.388a3.324,3.324,0,1,0,2.555,1.2A3.326,3.326,0,0,0,35.717,7.388Z" transform="translate(154.505 418.207)" fill="#fff"/>
      <path id="Fill_64" data-name="Fill 64" d="M.9,18.486c.13-.026,13.054-2.518,17.876-6.541,4.174-3.479,4.472-10.492-3.32-9.663C9.347,2.934,4.245,12.165,2.335,16.1a1.107,1.107,0,0,1-1.992-.967C2.916,9.831,8.269.818,15.216.078c9.742-1.037,11.1,8.465,4.974,13.569-5.265,4.39-18.328,6.911-18.882,7.016A1.108,1.108,0,0,1,.9,18.486" transform="translate(190.61 408.533)" fill="#fff"/>
      <path id="Fill_66" data-name="Fill 66" d="M45.91,91.9A45.949,45.949,0,1,1,91.821,45.949,45.982,45.982,0,0,1,45.91,91.9" transform="translate(686.542 243.919)" fill="#fff"/>
      <path id="Fill_68" data-name="Fill 68" d="M80.635,40.351A40.317,40.317,0,1,1,40.318,0,40.332,40.332,0,0,1,80.635,40.351" transform="translate(692.134 249.516)" fill="#99d7ff"/>
      <path id="Fill_70" data-name="Fill 70" d="M262.867,0H51.765A51.786,51.786,0,0,0,0,51.809v444.2a51.787,51.787,0,0,0,51.765,51.811h211.1a51.786,51.786,0,0,0,51.762-51.811V51.809A51.785,51.785,0,0,0,262.867,0" transform="translate(306.432 217.71)" fill="#331579"/>
      <path id="Fill_72" data-name="Fill 72" d="M37.742,510.351C16.931,510.351,0,493.713,0,473.259V37.092C0,16.64,16.931,0,37.742,0h211.1c20.811,0,37.739,16.64,37.739,37.092V473.259c0,20.453-16.928,37.092-37.739,37.092Z" transform="translate(320.455 241.139)" fill="#91aafe"/>
      <path id="Fill_74" data-name="Fill 74" d="M208.6,16.373H8.183A8.186,8.186,0,0,1,8.183,0H208.6a8.186,8.186,0,0,1,0,16.373" transform="translate(354.195 221.258)" fill="#190b3d"/>
      <path id="Fill_76" data-name="Fill 76" d="M13.292,6.652A6.646,6.646,0,1,1,6.648,0a6.649,6.649,0,0,1,6.645,6.652" transform="translate(551.911 222.938)" fill="#331579"/>
      <path id="Fill_78" data-name="Fill 78" d="M120.513,5.7H2.848a2.851,2.851,0,0,1,0-5.7H120.513a2.851,2.851,0,0,1,0,5.7" transform="translate(409.778 226.739)" fill="#0e061e"/>
      <path id="Clip_81-2" data-name="Clip 81" d="M0,804.178H785.375V0H0Z" transform="translate(0 0.714)" fill="none"/>
      <g id="Mask_Group_3" data-name="Mask Group 3" clip-path="url(#clip-path-2)">
        <path id="Fill_80" data-name="Fill 80" d="M0,356.145H242.17V0H0Z" transform="translate(342.827 287.925)" fill="#fff"/>
        <path id="Fill_82" data-name="Fill 82" d="M0,145.615H120.364V0H0Z" transform="translate(450.609 303.128)" fill="#fff7cf"/>
        <path id="Fill_83" data-name="Fill 83" d="M0,145.617H120.364V0H0Z" transform="translate(450.609 469.941)" fill="#fff7cf"/>
        <path id="Fill_84" data-name="Fill 84" d="M0,14.62H76.544V0H0Z" transform="translate(360.041 313.071)" fill="#fff7cf"/>
        <path id="Fill_85" data-name="Fill 85" d="M0,14.62H76.544V0H0Z" transform="translate(360.041 342.896)" fill="#fff7cf"/>
        <path id="Fill_86" data-name="Fill 86" d="M0,14.62H76.544V0H0Z" transform="translate(360.041 372.721)" fill="#fff7cf"/>
        <path id="Fill_87" data-name="Fill 87" d="M0,14.62H76.544V0H0Z" transform="translate(360.041 473.891)" fill="#fff7cf"/>
        <path id="Fill_88" data-name="Fill 88" d="M0,14.62H76.544V0H0Z" transform="translate(360.041 503.716)" fill="#fff7cf"/>
        <path id="Fill_89" data-name="Fill 89" d="M0,14.62H76.544V0H0Z" transform="translate(360.041 533.541)" fill="#fff7cf"/>
        <path id="Fill_90" data-name="Fill 90" d="M8.619,4.313A4.309,4.309,0,1,1,4.309,0,4.311,4.311,0,0,1,8.619,4.313" transform="translate(436.584 659.857)" fill="#331579"/>
        <path id="Fill_91" data-name="Fill 91" d="M8.619,4.313A4.309,4.309,0,1,1,4.309,0,4.311,4.311,0,0,1,8.619,4.313" transform="translate(452.653 659.857)" fill="#331579"/>
        <path id="Fill_92" data-name="Fill 92" d="M8.619,4.313A4.309,4.309,0,1,1,4.309,0,4.311,4.311,0,0,1,8.619,4.313" transform="translate(468.722 659.857)" fill="#331579"/>
        <path id="Fill_93" data-name="Fill 93" d="M0,3.962A3.96,3.96,0,1,0,3.959,0,3.96,3.96,0,0,0,0,3.962" transform="translate(560.224 275.488)" fill="#331579"/>
        <path id="Fill_94" data-name="Fill 94" d="M0,2.143A2.143,2.143,0,1,0,2.143,0,2.145,2.145,0,0,0,0,2.143" transform="translate(562.041 277.307)" fill="#270f5b"/>
        <path id="Fill_95" data-name="Fill 95" d="M0,3.962A3.96,3.96,0,1,0,3.959,0,3.96,3.96,0,0,0,0,3.962" transform="translate(543.005 275.488)" fill="#331579"/>
        <path id="Fill_96" data-name="Fill 96" d="M0,2.143A2.141,2.141,0,1,0,2.143,0,2.145,2.145,0,0,0,0,2.143" transform="translate(544.822 277.307)" fill="#270f5b"/>
        <path id="Fill_97" data-name="Fill 97" d="M7.634,20.739.246,7.962A1.74,1.74,0,0,1,.33,6.052a2.277,2.277,0,0,1,1.894-.934H31.568a.708.708,0,0,1,.748.658.708.708,0,0,1-.748.659H2.223A.738.738,0,0,0,1.6,6.74a.559.559,0,0,0-.026.624L8.965,20.141a.736.736,0,0,0,.646.349h19.2l4.86-17.08A4.714,4.714,0,0,1,38.181,0h5.414a.747.747,0,0,1,0,1.494H38.181a3.21,3.21,0,0,0-3.074,2.324l-6.362,22.35H7.913a.748.748,0,1,1,0-1.5h19.7l.815-2.866H9.611a2.256,2.256,0,0,1-1.977-1.068" transform="translate(536.874 248.223)" fill="#331579"/>
        <path id="Fill_98" data-name="Fill 98" d="M28.783,14.4A14.392,14.392,0,1,1,14.392,0,14.4,14.4,0,0,1,28.783,14.4" transform="translate(492.386 250.644)" fill="#fd5e5a"/>
        <path id="Fill_99" data-name="Fill 99" d="M2.045,3.89H.5A4.506,4.506,0,0,1,8.716,2,3.454,3.454,0,0,1,7.335,7a4.375,4.375,0,0,1,2.1,6.441C7.456,16.838,1.059,17.205,0,11.456H1.479c1.57,5.917,9.259,2.056,6.642-1.994C7.253,8.116,5.836,7.9,4.191,7.817V6.429C5.9,6.429,7.705,5.6,7.705,3.9c0-2.143-2.845-3.13-4.46-1.877a4.18,4.18,0,0,0-1.2,1.866" transform="translate(501.722 257.094)" fill="#fff"/>
        <path id="Fill_100" data-name="Fill 100" d="M0,8.189H181.718V0H0Z" transform="translate(403.279 678.57)" fill="#8d75bb"/>
        <path id="Fill_101" data-name="Fill 101" d="M0,8.189H181.718V0H0Z" transform="translate(403.279 696.846)" fill="#8d75bb"/>
        <path id="Fill_102" data-name="Fill 102" d="M52.922,105.933A52.961,52.961,0,0,1,15.5,15.514,52.944,52.944,0,1,1,73.521,101.77,52.55,52.55,0,0,1,52.922,105.933Zm0-98.915a45.949,45.949,0,1,0,45.909,45.95A45.982,45.982,0,0,0,52.922,7.017Z" transform="translate(134.7 235.867)" fill="#7fcdff"/>
        <path id="Fill_103" data-name="Fill 103" d="M52.922,105.933A52.961,52.961,0,0,1,15.5,15.514,52.944,52.944,0,1,1,73.521,101.77,52.552,52.552,0,0,1,52.922,105.933Zm0-98.915a45.949,45.949,0,1,0,45.911,45.95A45.982,45.982,0,0,0,52.922,7.017Z" transform="translate(679.53 236.901)" fill="#7fcdff"/>
        <path id="Fill_104" data-name="Fill 104" d="M52.922,105.933A52.961,52.961,0,0,1,15.5,15.514,52.944,52.944,0,1,1,73.521,101.77,52.552,52.552,0,0,1,52.922,105.933Zm0-98.915a45.949,45.949,0,1,0,45.911,45.95A45.982,45.982,0,0,0,52.922,7.017Z" transform="translate(679.53 64.411)" fill="#7fcdff"/>
        <path id="Fill_105" data-name="Fill 105" d="M52.922,105.933A52.961,52.961,0,0,1,15.5,15.514,52.944,52.944,0,1,1,73.521,101.77,52.552,52.552,0,0,1,52.922,105.933Zm0-98.915a45.949,45.949,0,1,0,45.911,45.95A45.982,45.982,0,0,0,52.922,7.017Z" transform="translate(679.53 413.03)" fill="#7fcdff"/>
        <path id="Fill_106" data-name="Fill 106" d="M52.922,105.931A52.959,52.959,0,0,1,15.5,15.514a52.944,52.944,0,1,1,58.021,86.255A52.553,52.553,0,0,1,52.922,105.931Zm0-98.914A45.948,45.948,0,1,0,98.831,52.967,45.982,45.982,0,0,0,52.922,7.017Z" transform="translate(134.7 381.742)" fill="#7fcdff"/>
        <path id="Fill_107" data-name="Fill 107" d="M134.633,45.976a4.988,4.988,0,0,1-1.325-.181L3.808,10.35A5.277,5.277,0,0,1,.176,3.908,5.117,5.117,0,0,1,6.454.179l129.5,35.447a5.276,5.276,0,0,1,3.634,6.442,5.154,5.154,0,0,1-4.953,3.908" transform="translate(232.653 297.982)" fill="#7fcdff"/>
        <path id="Fill_108" data-name="Fill 108" d="M146.78,11h-.018L5.124,10.526A5.2,5.2,0,0,1,0,5.245,5.2,5.2,0,0,1,5.139,0h.017L146.8.472a5.2,5.2,0,0,1,5.124,5.28A5.2,5.2,0,0,1,146.78,11" transform="translate(232.654 443.008)" fill="#7fcdff"/>
        <path id="Fill_109" data-name="Fill 109" d="M65.7,40.437,12.923,0,0,16.673Z" transform="translate(126.755 499.072)" fill="#0a4cfe"/>
        <path id="Fill_110" data-name="Fill 110" d="M0,31.291.754,0,52.783,21.92Z" transform="translate(139.67 517.589)" fill="#99d7ff"/>
        <path id="Fill_111" data-name="Fill 111" d="M0,0,52.84,66.337.065,25.9Z" transform="translate(139.613 473.173)" fill="#99d7ff"/>
        <path id="Fill_112" data-name="Fill 112" d="M0,0,13.669,1.844l-.109,4.544Z" transform="translate(126.756 515.745)" fill="#0033bf"/>
        <path id="Fill_113" data-name="Fill 113" d="M6.75,34.779a16.366,16.366,0,0,1,3.221.267V4.176L35.7,0V.932c0,10.977-.083,21.955.039,32.931.053,4.585-3.062,6.6-6.192,7.159C23.556,42.1,20,36.905,23.471,33.165c2.5-2.69,5.3-3.141,8.757-2.38V9.823l-18.774,3.44c0,.308-.047,16.922-.077,24.941-.015,4.313-2.913,6.93-6.974,7.126-9.4.456-7.734-10.24.347-10.55" transform="translate(711.355 267.196)" fill="#fff"/>
        <path id="Fill_114" data-name="Fill 114" d="M30.279,104.786H24.2L0,.463,8.811,0Z" transform="translate(331.892 228.028)" fill="#1f1a15"/>
        <path id="Fill_115" data-name="Fill 115" d="M33.025.389S12.176-3.171,4.882,11.242s-6.6,47,3.323,55.439,8.271,30.057,16.966,36.44,30.848,9.264,30.848-5.763c0,0-10.8,1.83-13.532-7.526,0,0,15.5,9.908,23.069-1.185s-8.695-14.76-8.695-14.76,6.393,3.139-3.144,1.493-3.311-4.029-3.311-12.1,5.9-2.366,4.211-17.188S40.13-.121,33.025.389" transform="translate(365.183 1.706)" fill="#0e1b29"/>
        <path id="Fill_116" data-name="Fill 116" d="M5.787,1.256,3.763,15.383S0,26.056,0,27.624c0,1.039,1.772,9.46,6.481,10.88,2.416.729,12.3-10.073,13.621-14.96C21.639,17.835,17.879,0,17.879,0Z" transform="translate(342.09 318.976)" fill="#fc7575"/>
        <path id="Fill_117" data-name="Fill 117" d="M2.731,0S.045,20.721.045,23.86s-.426,7.646,1.343,9.417,17.655-3.453,17.655-9.1S15.594,0,15.594,0Z" transform="translate(377.625 317.719)" fill="#fc7575"/>
        <path id="Fill_118" data-name="Fill 118" d="M65.026,66.225c0-14.148-.584-60.162-.584-60.162S56.081.394,39.352.394c-5.382,0-10.329-.922-15.684.053a99.4,99.4,0,0,0-21.576,6.9S5.561,50.756.14,80.4A8.558,8.558,0,0,0,8.59,90.437H61.454a5.776,5.776,0,0,0,5.69-6.728C65.9,76.2,65.026,69.9,65.026,66.225" transform="translate(349.646 66.238)" fill="#ffda88"/>
        <path id="Fill_119" data-name="Fill 119" d="M25.68,0c-8.57,6.646-10.4,8.934-12.842,11.929C-6.2,35.318-.719,67.078,7.935,65.886s26.539-4.293,40.388-1.406,45,2.02,47.885-9.24c1.924-7.5-8.321-33.6-13.863-54.323Z" transform="translate(329.449 155.758)" fill="#464a7f"/>
        <path id="Fill_120" data-name="Fill 120" d="M37.626,0,31.147,10.178c-3.185,7.3-1.325,24.775-1.325,24.775L1.355,33.511,0,6.665Z" transform="translate(346.523 185.011)" fill="#35385f"/>
        <path id="Fill_121" data-name="Fill 121" d="M5.788.229S21.945-1.5,28,4.56,22.52,93.2,23.964,97.82s8.365,4.043,4.326,8.085-5.047,6.784-3.174,8.661,2.6,4.62.866,6.353-2.306,6.351-2.306,6.351H4.338S2.9,115.432,2.9,113.411.6,105.617.6,105.617s7.2-3.759,3.743-7.218,0-8.662,0-16.171S-6.327,1.672,5.788.229" transform="translate(373.424 194.311)" fill="#6b6e98"/>
        <path id="Fill_122" data-name="Fill 122" d="M.79,4.461c5.59-5.595,14.626-6.292,23.566,0s5.771,21.884,5.771,36.033-.924,49.083.548,53.413,6.088,8.664,4.356,13.284-2.6,3.655.382,6.641,1.349,5.2,1.349,8.372S35.32,135.2,35.32,135.2H16.856s-.865-17.613-5.479-24.542S10.224,88.712,10.224,86.4,4.453,81.2,4.453,71.1-2.248,7.5.79,4.461" transform="translate(329.469 189.849)" fill="#6b6e98"/>
        <path id="Fill_123" data-name="Fill 123" d="M9.366,0s-3.287,5.747-7.9,18.74S4.612,83.223,4.612,91.885,15.466,111.43,15.466,111.43L24.7,101.037,18.639,63.5Z" transform="translate(343.265 73.581)" fill="#fd5e5a"/>
        <path id="Fill_124" data-name="Fill 124" d="M14.1,0s13.3,3.282,17.363,21.761,7.362,61.788,6.091,66.987S2.827,110.013,2.827,110.013L0,104.337S25.378,82.394,25.378,79.218,14.515,36.295,14.515,36.295Z" transform="translate(399.984 72.301)" fill="#fd5e5a"/>
        <path id="Fill_125" data-name="Fill 125" d="M0,3.461,7.5,56.737l93.47-3.326L99.121,0Z" transform="translate(311.706 134.777)" fill="#241145"/>
        <path id="Fill_126" data-name="Fill 126" d="M19.58,0C10.867,5.522,4.388,4.942,0,2.835.115,4.3,1.919,12.215,6.475,13.587,8.685,14.254,17.145,5.277,19.58,0" transform="translate(342.096 343.893)" fill="#ed1e79"/>
        <path id="Fill_127" data-name="Fill 127" d="M19.043,5.331A49.968,49.968,0,0,0,18.607,0C13.58,4.526,6.866,7.5.374.863.173,2.817.045,4.334.045,5.018c0,3.138-.426,7.646,1.343,9.417s17.655-3.453,17.655-9.1" transform="translate(377.625 336.562)" fill="#ed1e79"/>
        <path id="Fill_128" data-name="Fill 128" d="M24.269,8.673s-.727,1.6-1.828,4.1c-3.815,8.662-1.387,21.948-1.194,24.259.385,4.64-2.092,14.133-2.092,14.133S1.026,38.468,0,30.133L9.83,0Z" transform="translate(374.204 36.553)" fill="#fc7575"/>
        <path id="Fill_129" data-name="Fill 129" d="M1.912,0,16.351,8.673s-.73,1.6-1.828,4.1C9.443,11.366,1.684,8.8,0,5.861Z" transform="translate(382.122 36.553)" fill="#fd5e5a"/>
        <path id="Fill_130" data-name="Fill 130" d="M0,9.891,21.806,21.936s4.526.1,4.526-4.942S20.777,7.01,15.121,4.126A52.8,52.8,0,0,0,2.369,0Z" transform="translate(387.525 2.086)" fill="#0e1b29"/>
        <path id="Fill_131" data-name="Fill 131" d="M14.722,0s8.435,1.441,10.7,5.457S28.3,19.044,30.562,21.308A10.309,10.309,0,0,0,34.8,24.071s.6,1.046-1.662,2.179-.552,2.368.856,2.368.223,2.674-.856,2.986a1.56,1.56,0,0,1,1.129,1.75c-.255,1.338-.924,1.595-.924,1.595a8.708,8.708,0,0,0,.651,3.4c.721,1.648-1.029,6.536-12.068,4.375,0,0-16.409-3.86-17.385-8.492S-3.736,12.757,2.486,6.533,14.722,0,14.722,0" transform="translate(380.722 6.521)" fill="#fc7575"/>
        <path id="Fill_132" data-name="Fill 132" d="M.916,1.118s2.572-2.679,12.857.255S26.516,15.951,26.516,15.951,19.892,11.47,15.729,11.47,2.138,9.886.608,8.356.916,1.118.916,1.118" transform="translate(386.917 0.713)" fill="#1b3753"/>
        <path id="Fill_133" data-name="Fill 133" d="M20.125,0c1.437,0,10.532,10.116,8.063,17.837s-8.33,4.272-12.034,6.331.716,11.58.05,15.44S5.147,65.545,5.147,65.545s-8.74-46.675-3.441-55.322S20.125,0,20.125,0" transform="translate(369.056 1.141)" fill="#1b3753"/>
        <path id="Fill_134" data-name="Fill 134" d="M0,2.087C0,3.239,1.932,4.173,4.315,4.173s4.317-.934,4.317-2.087S6.7,0,4.315,0,0,.934,0,2.087" transform="translate(400.114 31.018)" fill="#fd5e5a"/>
        <path id="Fill_135" data-name="Fill 135" d="M7.189,0S5.772,2.847,0,2.717Z" transform="translate(403.301 24.021)" fill="#1b3753"/>
        <path id="Fill_136" data-name="Fill 136" d="M7,1.279A9.381,9.381,0,0,0,3.2,0C1.534,0,0,.671,0,1.279A6.83,6.83,0,0,1,3.262.639C4.7.864,5.373,1.971,5.948,1.971S7,1.279,7,1.279" transform="translate(401.745 21.346)" fill="#1b3753"/>
        <path id="Fill_137" data-name="Fill 137" d="M49.382,21.664s8,18.549-8.063,39.273S3.46,73.269.527,64.882,7.859,53.624,7.859,53.624,5.9,63.117,11.115,62.666s7.015-1.68,4.919-11.9,5.484-6.12,9.651-12.811,0-11.8,0-19.7S35.355,0,35.355,0Z" transform="translate(335.408 11.364)" fill="#1b3753"/>
        <path id="Fill_138" data-name="Fill 138" d="M5.384,5.29S2.409-1.194,1.019.2s-2.08,10.962,2.818,11.89S5.384,5.29,5.384,5.29" transform="translate(380.952 20.944)" fill="#fc7575"/>
        <path id="Fill_139" data-name="Fill 139" d="M2.692,2.829S1.157-.705.324.127s.065,6.4,1.187,6.4,1.455-1.918,1.182-3.7" transform="translate(383.43 24.196)" fill="#fd5e5a"/>
        <path id="Fill_140" data-name="Fill 140" d="M1.438,1.2c0,.664-.3,1.2-.678,1.2S.079,1.862.079,1.2.384,0,.76,0s.678.536.678,1.2" transform="translate(407.525 25.754)" fill="#1b3753"/>
        <path id="Fill_141" data-name="Fill 141" d="M61.2,0S42.468,5.946,39.71,10.4,27.064,44.227,24.533,46.758,4.135,50.781,0,51.718L9.481,68.176s19.272.4,24.676,0S61.2,0,61.2,0" transform="translate(598.2 534.928)" fill="#50284c"/>
        <path id="Fill_142" data-name="Fill 142" d="M2.375,0s29.7,28.732,25.1,61.184c0,0-6.667-11.422-19.316-9.162,0,0-5.919-12.468-7.676-20.292S2.375,0,2.375,0" transform="translate(688.551 538.835)" fill="#885e84"/>
        <path id="Fill_143" data-name="Fill 143" d="M0,104.786H6.079L30.279.465,21.468,0Z" transform="translate(667.797 694.4)" fill="#1f1a15"/>
        <path id="Fill_144" data-name="Fill 144" d="M30.279,104.786H24.2L0,.463,8.811,0Z" transform="translate(736.142 696.282)" fill="#1f1a15"/>
        <path id="Fill_145" data-name="Fill 145" d="M30.279,104.786H24.2L0,.463,8.811,0Z" transform="translate(573.471 685.022)" fill="#1f1a15"/>
        <path id="Fill_146" data-name="Fill 146" d="M0,104.788H6.079L30.279.463,21.471,0Z" transform="translate(523.007 692.105)" fill="#1f1a15"/>
        <path id="Fill_147" data-name="Fill 147" d="M0,10.972V87.7c0,6.059,5.774,10.971,12.895,10.971H210.877c7.121,0,12.895-4.911,12.895-10.971V10.972C223.772,4.913,218,0,210.877,0H12.895C5.774,0,0,4.913,0,10.972" transform="translate(527.511 603.103)" fill="#450000"/>
      </g>
    </g>
    <g id="Group_151" data-name="Group 151" transform="translate(527 602)">
      <path id="Clip_150-2" data-name="Clip 150" d="M210.9,98.556H12.9a14.044,14.044,0,0,1-9.119-3.209A10.129,10.129,0,0,1,0,87.6V10.959A10.133,10.133,0,0,1,3.777,3.21,14.042,14.042,0,0,1,12.9,0a14.036,14.036,0,0,1,9.116,3.21,10.134,10.134,0,0,1,3.776,7.75v47.9c0,6.041,5.784,10.957,12.893,10.957h78.405c6.791,0,12.443-4.506,12.868-10.259.019-36.64.025-45.868.026-47.823v-.775a10.133,10.133,0,0,1,3.778-7.75A14.039,14.039,0,0,1,142.875,0H210.9a14.043,14.043,0,0,1,9.119,3.21,10.133,10.133,0,0,1,3.777,7.75V87.6a10.129,10.129,0,0,1-3.777,7.747A14.044,14.044,0,0,1,210.9,98.556Z" transform="translate(0.982 0.194)" fill="none"/>
      <g id="Group_151-2" data-name="Group 151" clip-path="url(#clip-path-3)">
        <path id="Fill_149" data-name="Fill 149" d="M210.9,98.556H12.9a14.044,14.044,0,0,1-9.119-3.209A10.129,10.129,0,0,1,0,87.6V10.959A10.133,10.133,0,0,1,3.777,3.21,14.042,14.042,0,0,1,12.9,0a14.036,14.036,0,0,1,9.116,3.21,10.134,10.134,0,0,1,3.776,7.75v47.9c0,6.041,5.784,10.957,12.893,10.957h78.405c6.791,0,12.443-4.506,12.868-10.259.019-36.64.025-45.868.026-47.823v-.775a10.133,10.133,0,0,1,3.778-7.75A14.039,14.039,0,0,1,142.875,0H210.9a14.043,14.043,0,0,1,9.119,3.21,10.133,10.133,0,0,1,3.777,7.75V87.6a10.129,10.129,0,0,1-3.777,7.747A14.044,14.044,0,0,1,210.9,98.556Z" transform="translate(0.982 0.194)" fill="url(#linear-gradient)"/>
      </g>
    </g>
    <g id="Group_230" data-name="Group 230" transform="translate(448 429)">
      <path id="Fill_152" data-name="Fill 152" d="M48.134,7.394a7.089,7.089,0,0,0-2.3,4.784c-.283,2.439.913,6.28.913,9.481,0,7.609-1.752,9.95-1.752,9.95S0,31.317,0,29.268,16.651,15.513,23.373,15.513,35.352,0,35.352,0L46.745,4.975Z" transform="translate(8.571 329.735)" fill="#2f3453"/>
      <path id="Fill_154" data-name="Fill 154" d="M57.342,28.538,39.247,28.23c-7.449-.126-19.348.57-23.076.506S-.888,19.639.047,16.779s13.164-1.933,19.6-5.057S37.88-1.537,39.535.2,52.154,2.592,54.248,4.783s4.989,21.9,3.094,23.755" transform="translate(0.157 337.129)" fill="#3a758d"/>
      <path id="Fill_156" data-name="Fill 156" d="M50.234,4.62C20.6-.582,28.921,8.628,0,0,7.014,2.99,17.427,6.022,24.96,4.668a67.444,67.444,0,0,1,12.578-.624c4.225.073,8.456.316,12.7.576" transform="translate(4.683 356.08)" fill="#acfcdd"/>
      <path id="Fill_158" data-name="Fill 158" d="M10.493,7.756a1.135,1.135,0,0,1-1.613.109A59.15,59.15,0,0,0,0,1.425C.7.966,1.41.489,2.125,0a63.948,63.948,0,0,1,8.262,6.122,1.173,1.173,0,0,1,.106,1.634" transform="translate(24.565 344.613)" fill="#acfcdd"/>
      <path id="Fill_160" data-name="Fill 160" d="M5.729,7.388a1.134,1.134,0,0,1-1.548-.468A28.9,28.9,0,0,0,0,1.314C.662.857,1.311.416,1.936,0A30.484,30.484,0,0,1,6.191,5.82a1.16,1.16,0,0,1-.462,1.569" transform="translate(31.097 340.259)" fill="#acfcdd"/>
      <path id="Fill_162" data-name="Fill 162" d="M99.511,26.763,81.4,24.419S16.765-9.769,5.964,2.76c-9.1,10.552-7.722,13.975,3.672,25.391S41.458,50.822,41.458,50.822l15.4,5.208L25.833,27.152,70.879,46.663h51.809Z" transform="translate(81.433 177.117)" fill="#202857"/>
      <path id="Fill_164" data-name="Fill 164" d="M178.8,14.168s.349,10.65-5.844,16.857-82.388-.246-82.388-.246l-65.446,102.8L0,124.763s49.8-97.547,67.782-110.6S146.245,0,146.245,0Z" transform="translate(38.955 209.614)" fill="#3f50ae"/>
      <path id="Fill_166" data-name="Fill 166" d="M1.329,5.4,0,4.653S.95,2.958,2.624,0L3.951.752C2.28,3.707,1.329,5.4,1.329,5.4" transform="translate(57.617 332.102)" fill="#9cabfc"/>
      <path id="Fill_168" data-name="Fill 168" d="M1.323,91.347h0L0,90.59c1.515-2.652,3.27-5.709,5.365-9.347L6.685,82c-1.672,2.9-3.426,5.958-5.362,9.342ZM12.083,72.69h0l-1.318-.769c2.114-3.627,3.843-6.581,5.442-9.3l1.311.776c-1.765,3-3.593,6.125-5.435,9.289ZM23.006,54.139h0L21.7,53.356c1.847-3.1,3.714-6.206,5.549-9.234l1.3.793c-1.689,2.787-3.5,5.8-5.542,9.223Zm11.165-18.4h0l-1.3-.806c2-3.224,3.927-6.294,5.733-9.127l1.284.824c-1.75,2.739-3.674,5.8-5.72,9.108Zm11.6-18.118h0L44.5,16.773c2.369-3.529,4.461-6.505,6.218-8.848l1.22.915c-1.77,2.362-3.846,5.316-6.171,8.781Zm81.885-12.5c-1.341,0-2.8-.019-4.457-.059l.037-1.528c1.535.038,3,.057,4.365.057,2.532,0,4.65-.067,6.294-.2l.121,1.522C132.317,5.053,130.178,5.122,127.655,5.122Zm-15.221-.509h0c-3.249-.178-6.762-.4-10.739-.665l.1-1.523c3.811.259,7.417.482,10.719.663l-.083,1.524ZM90.971,3.194h0l-2.142-.153-.695-.05c-2.753-.2-5.353-.388-7.884-.563L80.357.905c2.564.177,5.29.372,8.581.612l2.143.154-.109,1.522ZM69.534,1.76h0c-3.073-.156-5.455-.232-7.28-.232a26.28,26.28,0,0,0-3.318.152L58.728.167A28.128,28.128,0,0,1,62.283,0c1.841,0,4.239.077,7.328.235l-.077,1.524Z" transform="translate(65.552 232.167)" fill="#9cabfc"/>
      <path id="Fill_170" data-name="Fill 170" d="M.7,3.909,0,2.55A50.956,50.956,0,0,0,4.566,0l.879,1.248A49.375,49.375,0,0,1,.7,3.909" transform="translate(208.97 229.597)" fill="#9cabfc"/>
      <path id="Fill_172" data-name="Fill 172" d="M40.651,1.987s7.114,11.455,7.114,12.728,2.159,6.744,0,8.907S0,11.4,0,11.4,14.226,7.842,20.326,7.842,30.36,2.879,28.2.715s12.45,1.273,12.45,1.273" transform="translate(92.38 218.299)" fill="#095270"/>
      <path id="Fill_174" data-name="Fill 174" d="M54.6,20.547s-3.367,1.514-17.22-4.343S.108,10.51,0,5.253,17-1.232,27.063,1.2,49.6,7.42,54.427,12.061s.171,8.486.171,8.486" transform="translate(84.488 225.714)" fill="#653870"/>
      <path id="Fill_176" data-name="Fill 176" d="M.022,6.367C-.851-.1,24.262-4.639,48.743,8.133c10.117,5.461,9.729,10.731,5.877,13.528C64.5,10.421,24.141,2.675,15.212,2.3,11.107,2.211.377,2.3.022,6.367" transform="translate(84.467 224.599)" fill="#cdfdeb"/>
      <path id="Fill_178" data-name="Fill 178" d="M60.184,0S78.748,6.123,81.8,11.366C94.34,32.891,85.07,126.047,54.925,136.977,39.681,142.506,0,102.439,0,102.439S29.1,78.862,30.968,42.732C32.749,8.275,60.184,0,60.184,0" transform="translate(162.832 99.098)" fill="#6a3565"/>
      <path id="Fill_180" data-name="Fill 180" d="M0,102.439C15.576,90.627,28.51,71.677,32.056,50c.94-7.619-.162-37.388,28.128-50a41.856,41.856,0,0,0-24.19,19.12C23.58,40.2,36.373,55.363,10.064,90.751A102.088,102.088,0,0,1,0,102.439" transform="translate(162.832 99.098)" fill="#edeeff"/>
      <path id="Fill_182" data-name="Fill 182" d="M11.8.679s27.725,17.41,35.979,29.055S59.651,47.869,59.651,47.869L28.378,43.237S3.39,27.405.554,17.708,6.407-2.844,11.8.679" transform="translate(80.58 179.116)" fill="#546be8"/>
      <path id="Fill_184" data-name="Fill 184" d="M41.73,42.872h0a41.128,41.128,0,0,0-2.324-3.848l1.261-.857a41.444,41.444,0,0,1,2.414,3.994l-1.349.711Zm-5-7.5h0c-.834-1.07-1.808-2.249-2.895-3.506l1.149-1c1.038,1.195,2.03,2.394,2.948,3.564l-1.2.943Zm-5.948-6.889h0c-1-1.076-2.069-2.181-3.165-3.284l1.081-1.078c1.1,1.1,2.171,2.221,3.2,3.318l-1.112,1.044Zm-6.422-6.49h0c-1.112-1.068-2.232-2.121-3.328-3.13l1.034-1.122c1.267,1.17,2.363,2.2,3.352,3.154l-1.056,1.1Zm-6.716-6.2h0c-1.076-.96-2.2-1.946-3.437-3.012l1-1.159c1.3,1.129,2.434,2.121,3.458,3.033l-1.015,1.138ZM10.716,9.811h0C9.5,8.794,8.317,7.814,7.19,6.9l.961-1.186C9.364,6.7,10.556,7.685,11.7,8.641L10.717,9.81ZM3.622,4.032h0C1.393,2.269.005,1.226,0,1.222L.913,0S.934.015.969.042C2,.824,3.279,1.816,4.566,2.834l-.943,1.2Z" transform="translate(89.469 180.082)" fill="#98a6f1"/>
      <path id="Fill_186" data-name="Fill 186" d="M7.483,0,.078,32.682c-.4,1.78.823,9.375,2.019,10.755,2.777,3.2,9.1,6,14.873,3.113C22,44.039,22.353,2.808,22.353,2.808S13.929-.024,7.483,0" transform="translate(214.177 68.611)" fill="#fc7575"/>
      <path id="Fill_188" data-name="Fill 188" d="M21.061,2.808s.006,1.361-.018,3.6a59.381,59.381,0,0,1-4.384,10.881C14.162,21.658,6.188,28.114,0,27.329L6.191,0c6.446-.023,14.87,2.808,14.87,2.808" transform="translate(215.469 68.611)" fill="#fd5e5a"/>
      <path id="Fill_190" data-name="Fill 190" d="M1.5.7C3.588,5.495,4.763,11.8,0,13.875,5.231,12.348,4.868,5.208,3.293,0Z" transform="translate(242.991 31.076)" fill="#132759"/>
      <path id="Fill_192" data-name="Fill 192" d="M11.324.771s-6.993-.55-9.5,7.941S-1.416,42,4.946,45.6s16.086-3.016,18.726-7.419c2.751-4.58,4.652-12.28,4.652-12.28S35.01-5.242,11.324.771" transform="translate(210.067 43.424)" fill="#fc7575"/>
      <path id="Fill_194" data-name="Fill 194" d="M46.476,58.37s-1.995,1.585-3.29-1.274c0,0-3.008-6.6,1.46-10.236s11.106-8.523,11.773-16.687-8.912-10.057-8.912-10.057S48.442,7.586,34.224,8.925c0,0-1.992-3.156-9.878-4.41S17.453,7.929,13.1,6.286,8.832.986,11,0C11,0,2.548,1.967.287,7.985s9.57,8.76,9.57,8.76S0,16.052,6.481,21.621s10.049,6.225,15.444,2.762,8-4.024,10.181-2.516.255,6.623,3.711,7.926,3.837,11.235,3.837,11.235,2.952-.361,1.46,6.252S37.9,57.8,41.8,59.271s4.672-.9,4.672-.9" transform="translate(196.269 24.273)" fill="#132759"/>
      <path id="Fill_196" data-name="Fill 196" d="M5.69.011c2.159.176,6.9,2.772,1.323,8.571S-.808,6.66.257,3.821A5.733,5.733,0,0,1,5.69.011" transform="translate(233.708 58.013)" fill="#fc7575"/>
      <path id="Fill_198" data-name="Fill 198" d="M2.008,0C1.682,4.1.871,7.975.942,11.884c.917.2,1.83.428,2.736.72a33.373,33.373,0,0,1-3.628.2A32.72,32.72,0,0,1,2.008,0" transform="translate(215.383 63.468)" fill="#132759"/>
      <path id="Fill_200" data-name="Fill 200" d="M.312,3.255a.484.484,0,0,0,.6-.241A4.235,4.235,0,0,1,3.944,1.007C5.86.644,9.985,2.643,11.417,3.44a.471.471,0,0,0,.655-.185.481.481,0,0,0-.186-.656C11.663,2.474,6.413-.443,3.766.058A5.184,5.184,0,0,0,.048,2.592a.483.483,0,0,0,.226.644c.014.006.026.014.038.018" transform="translate(218.933 59.376)" fill="#132759"/>
      <path id="Fill_202" data-name="Fill 202" d="M11.025.87S3.722,1.724,0,0C0,0,.065,3.244,2.206,4.567a6.414,6.414,0,0,0,8.82-3.7" transform="translate(212.566 78.138)" fill="#fff"/>
      <path id="Fill_204" data-name="Fill 204" d="M5.328,2.019S3.974,6.657,1.684,6.14-.443,1.991,1.464.563,5.819.716,5.328,2.019" transform="translate(235.954 60.75)" fill="#fd5e5a"/>
      <path id="Fill_206" data-name="Fill 206" d="M.007,1.6A1.558,1.558,0,0,0,1.212,3.4,1.554,1.554,0,0,0,2.687,1.809,1.559,1.559,0,0,0,1.482,0,1.557,1.557,0,0,0,.007,1.6" transform="translate(220.458 63.241)" fill="#132759"/>
      <path id="Fill_208" data-name="Fill 208" d="M.007,1.6A1.558,1.558,0,0,0,1.212,3.4,1.555,1.555,0,0,0,2.687,1.809,1.558,1.558,0,0,0,1.482,0,1.555,1.555,0,0,0,.007,1.6" transform="translate(210.936 62.001)" fill="#132759"/>
      <path id="Fill_210" data-name="Fill 210" d="M4.293,3.548a.481.481,0,0,1-.171.661.489.489,0,0,1-.412.035.469.469,0,0,1-.246-.208C3.085,3.388,1.865,1.616.8,1.212A7.176,7.176,0,0,0,0,.966Q.057.474.118,0A8.856,8.856,0,0,1,1.137.31C2.742.916,4.231,3.441,4.293,3.548" transform="translate(210.635 58.021)" fill="#132759"/>
      <path id="Fill_212" data-name="Fill 212" d="M.758.757v0Z" transform="translate(209.305 184.089)" fill="#fabf44"/>
      <path id="Fill_214" data-name="Fill 214" d="M.758.759v0Z" transform="translate(209.305 184.3)" fill="#fabf44"/>
      <path id="Fill_216" data-name="Fill 216" d="M12.855,59.629c.018-35.011.024-45.3.027-47.894v-.762C12.882,4.913,18.649,0,25.762,0h67.95c7.114,0,12.882,4.913,12.882,10.972V87.7c0,6.06-5.768,10.971-12.882,10.971H.681L0,69.9c6.838,0,12.432-4.539,12.855-10.272" transform="translate(197.181 173.322)" fill="#fabf44"/>
      <path id="Fill_218" data-name="Fill 218" d="M12.879,98.676H51.74c7.114,0,12.882-4.911,12.882-10.971V10.972C64.623,4.913,58.855,0,51.74,0H12.879C5.768,0,0,4.913,0,10.972V87.7c0,6.06,5.768,10.971,12.879,10.971" transform="translate(239.153 173.322)" fill="#890d00"/>
      <path id="Fill_220" data-name="Fill 220" d="M55.891.585,22.867,9.269S13.155,16.3,8.791,17.691-.915,23.913.134,25.4,6.664,21.845,7.556,22,4.331,28.106,3.663,32.012s-2,7.7.227,7.393,3.849-9.1,3.849-9.1,3.432-6.65,3.985-5.864-2.291,5.35-2.291,5.35-.676,4.936-.972,6.672c-.223,1.3.966,5.182,1.978,3.754.594-.84.317-4.049,1.007-5.88A29.029,29.029,0,0,1,15.181,27.6S12.7,38.849,14.259,39.117s3.174-9.053,3.174-9.053,3.811-7.762,5.474-8.453,6.235-3.649,9.77-4.879,18.153,2.825,24.676,2.911,17.1-3.965,17.984-9.1c.267-1.57-.708-3.3-2.191-4.954A17.286,17.286,0,0,0,55.891.585" transform="translate(193.222 159.638)" fill="#fc7575"/>
      <path id="Fill_222" data-name="Fill 222" d="M60.172.1,22.866,9.366s-9.71,7.028-14.077,8.423-9.7,6.222-8.656,7.7,6.534-3.551,7.425-3.4S4.334,28.2,3.665,32.109s-2.006,7.7.227,7.391,3.849-9.1,3.849-9.1,3.432-6.647,3.985-5.864-2.292,5.35-2.292,5.35-.675,4.936-.97,6.672c-.223,1.3.964,5.183,1.977,3.756.6-.84.314-4.049,1.007-5.88a29.093,29.093,0,0,1,3.734-6.735s-2.48,11.25-.92,11.519,3.174-9.053,3.174-9.053,3.81-7.762,5.471-8.454,6.235-3.649,9.773-4.879,17.448.907,23.971.993a80.861,80.861,0,0,0,13.687-1.257S66.4-1.534,60.172.1" transform="translate(90.666 156.76)" fill="#fd5e5a"/>
      <path id="Fill_224" data-name="Fill 224" d="M21.633,54.421a.586.586,0,0,0,.538-.351C34.814,25.5,1.28.365.94.116a.591.591,0,1,0-.7.952c.33.245,33.11,24.82,20.853,52.52a.591.591,0,0,0,.3.782.605.605,0,0,0,.24.05" transform="translate(238.562 0.266)" fill="#411ac0"/>
      <path id="Fill_226" data-name="Fill 226" d="M105.192,5,47.077,0,0,3.036,45.167,5.867Z" transform="translate(88.163 211.172)" fill="#838bc5"/>
      <path id="Fill_228" data-name="Fill 228" d="M58.332,5.663H0V0L58.332,1.965Z" transform="translate(135.023 214.208)" fill="#0f1d5b"/>
    </g>
    <g id="Group_233" data-name="Group 233" transform="translate(538 573)">
      <path id="Clip_232-2" data-name="Clip 232" d="M0,0,44.408,74.088V68.5L3.073,0Z" transform="translate(0.294 0.579)" fill="none"/>
      <g id="Group_233-2" data-name="Group 233" clip-path="url(#clip-path-4)">
        <path id="Fill_231" data-name="Fill 231" d="M0,0,44.408,74.088V68.5L3.073,0Z" transform="translate(0.294 0.579)" fill="url(#linear-gradient-2)"/>
      </g>
    </g>
    <g id="Group_246" data-name="Group 246" transform="translate(478 100)">
      <path id="Fill_234" data-name="Fill 234" d="M0,14.894,40.632,0l44.9,75.045L35.721,73.65Z" transform="translate(19.228 474.619)" fill="#0f1d5b"/>
      <path id="Fill_236" data-name="Fill 236" d="M5.893,0H77.537c3.256,0,5.893,4.253,5.893,9.5V31.6c0,5.246-2.636,9.5-5.893,9.5H74.295L83.43,71.185,54.848,41.1H5.893C2.639,41.1,0,36.845,0,31.6V9.5C0,4.253,2.639,0,5.893,0" transform="translate(-0.001 405.066)" fill="#ed4790"/>
      <path id="Fill_238" data-name="Fill 238" d="M28.977,0C12.974,0,0,5.6,0,12.5c0,3.45,3.243,6.576,8.486,8.838L5.8,33.334l9.865-9.728A61.584,61.584,0,0,0,28.977,25c16.006,0,28.98-5.6,28.98-12.5S44.984,0,28.977,0" transform="translate(230.794 0.485)" fill="#fff"/>
      <path id="Fill_240" data-name="Fill 240" d="M0,2.387A2.384,2.384,0,1,0,2.381,0,2.384,2.384,0,0,0,0,2.387" transform="translate(271.144 13.786)" fill="#99d7ff"/>
      <path id="Fill_242" data-name="Fill 242" d="M0,2.387A2.384,2.384,0,1,0,2.381,0,2.384,2.384,0,0,0,0,2.387" transform="translate(264.846 13.786)" fill="#99d7ff"/>
      <path id="Fill_244" data-name="Fill 244" d="M0,2.387A2.382,2.382,0,1,0,2.381,0,2.384,2.384,0,0,0,0,2.387" transform="translate(258.548 13.786)" fill="#99d7ff"/>
    </g>
  </g>
</svg>
