<svg xmlns="http://www.w3.org/2000/svg" xmlns:xlink="http://www.w3.org/1999/xlink" width="905.433" height="608.734" viewBox="0 0 905.433 608.734">
  <defs>
    <clipPath id="clip-path">
      <path id="Clip_2" data-name="Clip 2" d="M0,0H688.615V467.293H0Z" transform="translate(0.481 0.578)" fill="none"/>
    </clipPath>
    <clipPath id="clip-path-2">
      <path id="Clip_9" data-name="Clip 9" d="M0,608.734H905.433V0H0Z" transform="translate(0 0.62)" fill="none"/>
    </clipPath>
    <clipPath id="clip-path-3">
      <path id="Clip_67" data-name="Clip 67" d="M228.515,107.305H13.972a15.17,15.17,0,0,1-9.88-3.494A11.048,11.048,0,0,1,0,95.377V11.93A11.051,11.051,0,0,1,4.092,3.494,15.169,15.169,0,0,1,13.972,0a15.169,15.169,0,0,1,9.88,3.494,11.051,11.051,0,0,1,4.092,8.436V64.084c0,6.578,6.268,11.93,13.972,11.93h84.953c7.357,0,13.483-4.907,13.945-11.171.019-36.715.025-49.4.025-52.165v-.1c0-.136,0-.351,0-.65a11.05,11.05,0,0,1,4.092-8.436A15.169,15.169,0,0,1,154.811,0h73.7a15.169,15.169,0,0,1,9.88,3.494,11.051,11.051,0,0,1,4.092,8.436V95.377a11.048,11.048,0,0,1-4.092,8.435A15.17,15.17,0,0,1,228.515,107.305Z" transform="translate(0.098 0.059)" fill="none"/>
    </clipPath>
    <linearGradient id="linear-gradient" x1="-0.021" y1="0.287" x2="1.045" y2="0.722" gradientUnits="objectBoundingBox">
      <stop offset="0" stop-color="#f47938"/>
      <stop offset="1" stop-color="#fffb4d"/>
    </linearGradient>
    <clipPath id="clip-path-4">
      <path id="Clip_134" data-name="Clip 134" d="M0,0H491.642V471.614H0Z" transform="translate(0 0.622)" fill="none"/>
    </clipPath>
  </defs>
  <g id="sendData" transform="translate(0 -0.62)">
    <g id="sendData-2" data-name="sendData">
      <g id="Group_3" data-name="Group 3" transform="translate(74.074 141.484)">
        <path id="Clip_2-2" data-name="Clip 2" d="M0,0H688.615V467.293H0Z" transform="translate(0.481 0.578)" fill="none"/>
        <g id="Group_3-2" data-name="Group 3" clip-path="url(#clip-path)">
          <path id="Fill_1" data-name="Fill 1" d="M366.115,0S-58.213,7.581,6.768,202.878s537.1,280.085,601.591,262.048S835.569,25.778,366.115,0" transform="translate(0.481 0.578)" fill="#ffd6d6"/>
        </g>
      </g>
      <path id="Fill_4" data-name="Fill 4" d="M374.262,259.226H5.725A5.723,5.723,0,0,1,0,253.5V5.72A5.723,5.723,0,0,1,5.725,0H374.262a5.724,5.724,0,0,1,5.725,5.72V253.5a5.724,5.724,0,0,1-5.725,5.722" transform="translate(405.701 92.233)" fill="#7796fe"/>
      <path id="Fill_6" data-name="Fill 6" d="M374.262,24.835H5.725A5.723,5.723,0,0,1,0,19.113V5.722A5.724,5.724,0,0,1,5.725,0H374.262a5.725,5.725,0,0,1,5.725,5.722V19.113a5.724,5.724,0,0,1-5.725,5.722" transform="translate(405.701 92.232)" fill="#004d54"/>
      <path id="Clip_9-2" data-name="Clip 9" d="M0,608.734H905.433V0H0Z" transform="translate(0 0.62)" fill="none"/>
      <g id="Mask_Group_2" data-name="Mask Group 2" clip-path="url(#clip-path-2)">
        <path id="Fill_8" data-name="Fill 8" d="M0,146.661H94.137V0H0Z" transform="translate(440.669 142.062)" fill="#a2b7fd"/>
        <path id="Fill_10" data-name="Fill 10" d="M0,8.246H200.118V0H0Z" transform="translate(561.16 142.062)" fill="#698bfd"/>
        <path id="Fill_11" data-name="Fill 11" d="M0,9.537H200.118V0H0Z" transform="translate(561.16 159.505)" fill="#698bfd"/>
        <path id="Fill_12" data-name="Fill 12" d="M0,13.589H252.62V0H0Z" transform="translate(419.916 99.187)" fill="#fff"/>
        <path id="Fill_13" data-name="Fill 13" d="M4.184,2.091A2.092,2.092,0,1,1,2.092,0,2.091,2.091,0,0,1,4.184,2.091" transform="translate(741 108.595)" fill="#fff"/>
        <path id="Fill_14" data-name="Fill 14" d="M4.184,2.091A2.092,2.092,0,1,1,2.092,0,2.091,2.091,0,0,1,4.184,2.091" transform="translate(746.07 108.595)" fill="#fff"/>
        <path id="Fill_15" data-name="Fill 15" d="M4.184,2.091A2.092,2.092,0,1,1,2.092,0,2.091,2.091,0,0,1,4.184,2.091" transform="translate(751.139 108.595)" fill="#fff"/>
        <path id="Fill_16" data-name="Fill 16" d="M6.848,11.115h0a.745.745,0,0,1-.644-.379c-.019-.038-.039-.078-.056-.117L4.73,6.907a3.259,3.259,0,0,1-1.32.28A3.509,3.509,0,0,1,0,3.593,3.509,3.509,0,0,1,3.409,0,3.509,3.509,0,0,1,6.818,3.593,3.636,3.636,0,0,1,5.477,6.444l2.01,3.467A.815.815,0,0,1,7.236,11,.715.715,0,0,1,6.848,11.115ZM3.409.866A2.664,2.664,0,0,0,.82,3.593,2.664,2.664,0,0,0,3.409,6.321,2.664,2.664,0,0,0,6,3.593,2.664,2.664,0,0,0,3.409.866Z" transform="translate(661.72 100.424)" fill="#121841"/>
        <path id="Fill_17" data-name="Fill 17" d="M0,12.873H21.35V0H0Z" transform="translate(682.913 99.189)" fill="#f57408"/>
        <path id="Fill_18" data-name="Fill 18" d="M0,157.351H175.818V0H0Z" transform="translate(577.413 182.868)" fill="#e4edff"/>
        <path id="Fill_19" data-name="Fill 19" d="M0,66.517H69.628V0H0Z" transform="translate(595.695 207.903)" fill="#fff"/>
        <path id="Fill_20" data-name="Fill 20" d="M0,55.277H69.628V0H0Z" transform="translate(680.625 284.942)" fill="#fff"/>
        <path id="Fill_21" data-name="Fill 21" d="M0,7.153H85.09V0H0Z" transform="translate(624.661 190.735)" fill="#f57408"/>
        <path id="Fill_22" data-name="Fill 22" d="M0,3.577H72.707V0H0Z" transform="translate(677.547 207.903)" fill="#698bfd"/>
        <path id="Fill_23" data-name="Fill 23" d="M0,3.577H72.707V0H0Z" transform="translate(677.547 214.102)" fill="#698bfd"/>
        <path id="Fill_24" data-name="Fill 24" d="M0,3.577H72.707V0H0Z" transform="translate(677.547 220.299)" fill="#698bfd"/>
        <path id="Fill_25" data-name="Fill 25" d="M0,3.577H72.707V0H0Z" transform="translate(677.547 226.498)" fill="#698bfd"/>
        <path id="Fill_26" data-name="Fill 26" d="M0,3.575H72.707V0H0Z" transform="translate(677.547 232.698)" fill="#698bfd"/>
        <path id="Fill_27" data-name="Fill 27" d="M0,3.577H72.707V0H0Z" transform="translate(677.547 238.896)" fill="#698bfd"/>
        <path id="Fill_28" data-name="Fill 28" d="M0,3.577H72.707V0H0Z" transform="translate(677.547 245.095)" fill="#698bfd"/>
        <path id="Fill_29" data-name="Fill 29" d="M0,3.575H72.707V0H0Z" transform="translate(677.547 251.294)" fill="#698bfd"/>
        <path id="Fill_30" data-name="Fill 30" d="M0,3.577H72.707V0H0Z" transform="translate(677.547 257.493)" fill="#698bfd"/>
        <path id="Fill_31" data-name="Fill 31" d="M0,3.577H72.707V0H0Z" transform="translate(677.547 263.69)" fill="#698bfd"/>
        <path id="Fill_32" data-name="Fill 32" d="M0,3.577H72.707V0H0Z" transform="translate(677.547 269.889)" fill="#698bfd"/>
        <path id="Fill_33" data-name="Fill 33" d="M374.26,259.226H5.723A5.723,5.723,0,0,1,0,253.5V5.72A5.721,5.721,0,0,1,5.723,0H374.26a5.723,5.723,0,0,1,5.725,5.72V253.5a5.725,5.725,0,0,1-5.725,5.724" transform="translate(525.448 264.798)" fill="#d5dffe"/>
        <path id="Fill_34" data-name="Fill 34" d="M374.26,24.835H5.723A5.723,5.723,0,0,1,0,19.113V5.722A5.723,5.723,0,0,1,5.723,0H374.26a5.724,5.724,0,0,1,5.725,5.722V19.113a5.724,5.724,0,0,1-5.725,5.722" transform="translate(525.448 264.797)" fill="#004d54"/>
        <path id="Fill_35" data-name="Fill 35" d="M0,146.661H94.137V0H0Z" transform="translate(560.416 314.627)" fill="#698bfd"/>
        <path id="Fill_36" data-name="Fill 36" d="M0,8.246H200.118V0H0Z" transform="translate(680.905 314.626)" fill="#698bfd"/>
        <path id="Fill_37" data-name="Fill 37" d="M0,9.537H200.118V0H0Z" transform="translate(680.905 332.069)" fill="#698bfd"/>
        <path id="Fill_38" data-name="Fill 38" d="M0,13.589H252.622V0H0Z" transform="translate(539.662 271.753)" fill="#fff"/>
        <path id="Fill_39" data-name="Fill 39" d="M4.184,2.091A2.092,2.092,0,1,1,2.092,0,2.091,2.091,0,0,1,4.184,2.091" transform="translate(860.747 281.159)" fill="#fff"/>
        <path id="Fill_40" data-name="Fill 40" d="M4.184,2.091A2.092,2.092,0,1,1,2.092,0,2.091,2.091,0,0,1,4.184,2.091" transform="translate(865.815 281.159)" fill="#fff"/>
        <path id="Fill_41" data-name="Fill 41" d="M4.184,2.091A2.092,2.092,0,1,1,2.092,0,2.091,2.091,0,0,1,4.184,2.091" transform="translate(870.884 281.159)" fill="#fff"/>
        <path id="Fill_42" data-name="Fill 42" d="M6.847,11.114a.74.74,0,0,1-.642-.378,1.251,1.251,0,0,1-.056-.117L4.729,6.907a3.255,3.255,0,0,1-1.319.28A3.51,3.51,0,0,1,0,3.593,3.509,3.509,0,0,1,3.411,0,3.509,3.509,0,0,1,6.82,3.593,3.631,3.631,0,0,1,5.478,6.442l2.01,3.469A.817.817,0,0,1,7.238,11,.719.719,0,0,1,6.847,11.114ZM3.411.866A2.664,2.664,0,0,0,.822,3.593,2.664,2.664,0,0,0,3.411,6.321,2.664,2.664,0,0,0,6,3.593,2.663,2.663,0,0,0,3.411.866Z" transform="translate(781.465 272.989)" fill="#121841"/>
        <path id="Fill_43" data-name="Fill 43" d="M0,12.873H21.35V0H0Z" transform="translate(802.66 271.753)" fill="#f57408"/>
        <path id="Fill_44" data-name="Fill 44" d="M0,157.351H175.818V0H0Z" transform="translate(697.159 355.434)" fill="#e4edff"/>
        <path id="Fill_45" data-name="Fill 45" d="M0,66.517H69.628V0H0Z" transform="translate(715.44 380.468)" fill="#fff"/>
        <path id="Fill_46" data-name="Fill 46" d="M0,55.277H69.628V0H0Z" transform="translate(800.371 457.508)" fill="#fff"/>
        <path id="Fill_47" data-name="Fill 47" d="M0,7.153H85.09V0H0Z" transform="translate(744.407 363.301)" fill="#f57408"/>
        <path id="Fill_48" data-name="Fill 48" d="M0,3.577H72.707V0H0Z" transform="translate(797.292 380.468)" fill="#698bfd"/>
        <path id="Fill_49" data-name="Fill 49" d="M0,3.577H72.707V0H0Z" transform="translate(797.292 386.666)" fill="#698bfd"/>
        <path id="Fill_50" data-name="Fill 50" d="M0,3.577H72.707V0H0Z" transform="translate(797.292 392.865)" fill="#698bfd"/>
        <path id="Fill_51" data-name="Fill 51" d="M0,3.577H72.707V0H0Z" transform="translate(797.292 399.064)" fill="#698bfd"/>
        <path id="Fill_52" data-name="Fill 52" d="M0,3.577H72.707V0H0Z" transform="translate(797.292 405.261)" fill="#698bfd"/>
        <path id="Fill_53" data-name="Fill 53" d="M0,3.575H72.707V0H0Z" transform="translate(797.292 411.462)" fill="#698bfd"/>
        <path id="Fill_54" data-name="Fill 54" d="M0,3.577H72.707V0H0Z" transform="translate(797.292 417.659)" fill="#698bfd"/>
        <path id="Fill_55" data-name="Fill 55" d="M0,3.577H72.707V0H0Z" transform="translate(797.292 423.858)" fill="#698bfd"/>
        <path id="Fill_56" data-name="Fill 56" d="M0,3.575H72.707V0H0Z" transform="translate(797.292 430.057)" fill="#698bfd"/>
        <path id="Fill_57" data-name="Fill 57" d="M0,3.577H72.707V0H0Z" transform="translate(797.292 436.256)" fill="#698bfd"/>
        <path id="Fill_58" data-name="Fill 58" d="M0,3.577H72.707V0H0Z" transform="translate(797.292 442.455)" fill="#698bfd"/>
        <path id="Fill_59" data-name="Fill 59" d="M332.395,17.975c0,9.927-74.409,17.975-166.2,17.975S0,27.9,0,17.975,74.409,0,166.2,0s166.2,8.048,166.2,17.975" transform="translate(163.132 553.409)" fill="#2846a6"/>
        <path id="Fill_60" data-name="Fill 60" d="M0,113.514H6.594L32.85.5,23.292,0Z" transform="translate(355.755 459.245)" fill="#1f1a15"/>
        <path id="Fill_61" data-name="Fill 61" d="M32.85,113.514H26.255L0,.5,9.559,0Z" transform="translate(429.897 461.284)" fill="#1f1a15"/>
        <path id="Fill_62" data-name="Fill 62" d="M32.85,113.514H26.257L0,.5,9.559,0Z" transform="translate(253.427 449.087)" fill="#1f1a15"/>
        <path id="Fill_63" data-name="Fill 63" d="M0,113.516H6.594L32.85.5,23.291,0Z" transform="translate(198.683 456.76)" fill="#1f1a15"/>
        <path id="Fill_64" data-name="Fill 64" d="M0,11.886V95.01c0,6.564,6.262,11.885,13.987,11.885h214.78c7.723,0,13.987-5.32,13.987-11.885V11.886C242.753,5.322,236.49,0,228.766,0H13.987C6.262,0,0,5.322,0,11.886" transform="translate(203.569 360.343)" fill="#450000"/>
      </g>
    </g>
    <g id="Group_68" data-name="Group 68" transform="translate(204 360)">
      <path id="Clip_67-2" data-name="Clip 67" d="M228.515,107.305H13.972a15.17,15.17,0,0,1-9.88-3.494A11.048,11.048,0,0,1,0,95.377V11.93A11.051,11.051,0,0,1,4.092,3.494,15.169,15.169,0,0,1,13.972,0a15.169,15.169,0,0,1,9.88,3.494,11.051,11.051,0,0,1,4.092,8.436V64.084c0,6.578,6.268,11.93,13.972,11.93h84.953c7.357,0,13.483-4.907,13.945-11.171.019-36.715.025-49.4.025-52.165v-.1c0-.136,0-.351,0-.65a11.05,11.05,0,0,1,4.092-8.436A15.169,15.169,0,0,1,154.811,0h73.7a15.169,15.169,0,0,1,9.88,3.494,11.051,11.051,0,0,1,4.092,8.436V95.377a11.048,11.048,0,0,1-4.092,8.435A15.17,15.17,0,0,1,228.515,107.305Z" transform="translate(0.098 0.059)" fill="none"/>
      <g id="Group_68-2" data-name="Group 68" clip-path="url(#clip-path-3)">
        <path id="Fill_66" data-name="Fill 66" d="M228.515,107.305H13.972a15.17,15.17,0,0,1-9.88-3.494A11.048,11.048,0,0,1,0,95.377V11.93A11.051,11.051,0,0,1,4.092,3.494,15.169,15.169,0,0,1,13.972,0a15.169,15.169,0,0,1,9.88,3.494,11.051,11.051,0,0,1,4.092,8.436V64.084c0,6.578,6.268,11.93,13.972,11.93h84.953c7.357,0,13.483-4.907,13.945-11.171.019-36.715.025-49.4.025-52.165v-.1c0-.136,0-.351,0-.65a11.05,11.05,0,0,1,4.092-8.436A15.169,15.169,0,0,1,154.811,0h73.7a15.169,15.169,0,0,1,9.88,3.494,11.051,11.051,0,0,1,4.092,8.436V95.377a11.048,11.048,0,0,1-4.092,8.435A15.17,15.17,0,0,1,228.515,107.305Z" transform="translate(0.098 0.059)" fill="url(#linear-gradient)"/>
      </g>
    </g>
    <g id="Group_144" data-name="Group 144">
      <path id="Fill_69" data-name="Fill 69" d="M.823.821v0Z" transform="translate(343.637 372.252)" fill="#fabf44"/>
      <path id="Fill_71" data-name="Fill 71" d="M.823.822v0Z" transform="translate(343.637 372.48)" fill="#fabf44"/>
      <path id="Fill_73" data-name="Fill 73" d="M13.955,64.638c.02-37.952.026-49.1.028-51.917v-.826C13.983,5.326,20.243,0,27.965,0h73.763c7.723,0,13.983,5.326,13.983,11.894V95.072c0,6.568-6.26,11.892-13.983,11.892H.739L0,75.773c7.423,0,13.5-4.921,13.955-11.135" transform="translate(330.478 360.58)" fill="#fabf44"/>
      <path id="Fill_75" data-name="Fill 75" d="M13.983,106.964H56.168c7.723,0,13.983-5.324,13.983-11.892V11.894C70.15,5.326,63.891,0,56.168,0H13.983C6.262,0,0,5.326,0,11.894V95.072c0,6.568,6.262,11.892,13.983,11.892" transform="translate(376.038 360.58)" fill="#f15a24"/>
      <path id="Fill_77" data-name="Fill 77" d="M35.814.422S13.2-3.437,5.3,12.186s-7.162,50.951,3.6,60.1,8.973,32.582,18.4,39.5,33.457,10.045,33.457-6.246c0,0-11.71,1.984-14.675-8.159,0,0,16.8,7.879,25.016-4.145s-9.429-13.14-9.429-13.14,6.931,3.4-3.41,1.618S54.666,77.346,54.666,68.6s6.393-2.565,4.567-18.632S43.521-.131,35.814.422" transform="translate(289.458 204.046)" fill="#0e1b29"/>
      <path id="Fill_79" data-name="Fill 79" d="M6.276,1.36,4.083,16.675S0,28.245,0,29.945C0,31.071,1.92,40.2,7.03,41.739c2.618.79,13.346-10.92,14.771-16.215C23.468,19.333,19.39,0,19.39,0Z" transform="translate(264.412 547.97)" fill="#fc7575"/>
      <path id="Fill_81" data-name="Fill 81" d="M2.96,0S.049,22.461.049,25.862-.413,34.153,1.5,36.071,20.649,32.329,20.649,26.2,16.907,0,16.907,0Z" transform="translate(302.953 546.608)" fill="#fc7575"/>
      <path id="Fill_83" data-name="Fill 83" d="M70.521,71.788c0-15.335-.635-65.216-.635-65.216S60.822.426,42.676.426c-5.835,0-11.2-1-17.009.059a107.88,107.88,0,0,0-23.4,7.476S6.03,55.021.151,87.15A9.277,9.277,0,0,0,9.316,98.035H66.647a6.263,6.263,0,0,0,6.173-7.293c-1.349-8.144-2.3-14.973-2.3-18.955" transform="translate(272.607 274)" fill="#ffda88"/>
      <path id="Fill_85" data-name="Fill 85" d="M27.852,0c-9.3,7.2-11.282,9.685-13.928,12.931C-6.725,38.285-.781,72.713,8.605,71.419s28.783-4.652,43.8-1.524,48.809,2.193,51.937-10.014C106.425,51.751,95.315,23.456,89.3.994Z" transform="translate(250.702 371.04)" fill="#464a7f"/>
      <path id="Fill_87" data-name="Fill 87" d="M40.806,0,33.781,11.033c-3.456,7.912-1.44,26.857-1.44,26.857L1.468,36.324,0,7.225Z" transform="translate(269.22 402.751)" fill="#35385f"/>
      <path id="Fill_89" data-name="Fill 89" d="M6.278.248S23.8-1.63,30.368,4.943s-5.944,96.086-4.379,101.094,9.072,4.382,4.692,8.763-5.475,7.355-3.441,9.39,2.816,5.008.938,6.886-2.5,6.885-2.5,6.885H4.7S3.15,125.129,3.15,122.938s-2.5-8.449-2.5-8.449,7.808-4.074,4.058-7.826,0-9.389,0-17.528S-6.862,1.812,6.278.248" transform="translate(298.395 412.832)" fill="#6b6e98"/>
      <path id="Fill_91" data-name="Fill 91" d="M.857,4.837c6.062-6.065,15.86-6.822,25.56,0S32.673,28.559,32.673,43.9s-1,53.208.592,57.9,6.6,9.392,4.726,14.4-2.817,3.962.415,7.2,1.463,5.633,1.463,9.076S38.3,146.555,38.3,146.555H18.282s-.94-19.093-5.944-26.6-1.252-23.787-1.252-26.29S4.828,88.026,4.828,77.072-2.437,8.131.857,4.837" transform="translate(250.724 407.995)" fill="#6b6e98"/>
      <path id="Fill_93" data-name="Fill 93" d="M10.156,0S6.6,6.231,1.589,20.315,5,90.216,5,99.6s11.771,21.187,11.771,21.187l10.01-11.269L20.214,68.836Z" transform="translate(265.686 281.96)" fill="#fd5e5a"/>
      <path id="Fill_95" data-name="Fill 95" d="M15.294,0s14.43,3.559,18.834,23.591S42.109,90.57,40.734,96.2,3.066,119.257,3.066,119.257L0,113.1S27.523,89.317,27.523,85.874,15.743,39.345,15.743,39.345Z" transform="translate(327.199 280.571)" fill="#fd5e5a"/>
      <path id="Fill_97" data-name="Fill 97" d="M0,3.75,8.134,61.5,109.5,57.9,107.5,0Z" transform="translate(231.462 348.297)" fill="#241145"/>
      <path id="Fill_99" data-name="Fill 99" d="M21.235,0C11.786,5.986,4.757,5.357,0,3.074.125,4.659,2.083,13.239,7.023,14.729,9.418,15.452,18.592,5.722,21.235,0" transform="translate(264.419 574.98)" fill="#ed1e79"/>
      <path id="Fill_101" data-name="Fill 101" d="M20.649,5.778A53.708,53.708,0,0,0,20.176,0C14.724,4.9,7.444,8.134.4.933.187,3.052.049,4.7.049,5.438c0,3.4-.462,8.29,1.456,10.208S20.649,11.9,20.649,5.778" transform="translate(302.952 567.032)" fill="#ed1e79"/>
      <path id="Fill_103" data-name="Fill 103" d="M26.318,9.4s-.787,1.73-1.981,4.44c-4.137,9.39-1.506,23.791-1.3,26.3.418,5.029-2.269,15.32-2.269,15.32S1.112,41.7,0,32.665L10.66,0Z" transform="translate(299.24 241.822)" fill="#fc7575"/>
      <path id="Fill_105" data-name="Fill 105" d="M2.075,0,17.733,9.4s-.788,1.735-1.981,4.438C10.241,12.32,1.827,9.542,0,6.353Z" transform="translate(307.825 241.822)" fill="#fd5e5a"/>
      <path id="Fill_107" data-name="Fill 107" d="M0,10.722,23.647,23.777s4.907.112,4.907-5.355S22.532,7.6,16.4,4.473A57.257,57.257,0,0,0,2.567,0Z" transform="translate(313.688 204.459)" fill="#0e1b29"/>
      <path id="Fill_109" data-name="Fill 109" d="M15.968,0s9.146,1.562,11.6,5.915S30.692,20.644,33.145,23.1a11.192,11.192,0,0,0,4.593,2.995s.65,1.134-1.8,2.361-.6,2.568.928,2.568.244,2.9-.928,3.237a1.692,1.692,0,0,1,1.226,1.9c-.278,1.45-1,1.73-1,1.73a9.407,9.407,0,0,0,.7,3.681c.782,1.785-1.112,7.085-13.086,4.743,0,0-17.794-4.185-18.854-9.206S-4.052,13.83,2.7,7.082,15.968,0,15.968,0" transform="translate(306.308 209.267)" fill="#fc7575"/>
      <path id="Fill_111" data-name="Fill 111" d="M.994,1.212s2.23-2.9,13.385.278,14.379,15.8,14.379,15.8-7.185-4.86-11.7-4.86S2.32,10.717.66,9.06.994,1.212.994,1.212" transform="translate(313.027 202.97)" fill="#1b3753"/>
      <path id="Fill_113" data-name="Fill 113" d="M22.675,0c1.56,0,10.571,11.234,7.9,19.6s-9.034,4.631-13.051,6.862.778,12.554.054,16.739S5.582,71.32,5.582,71.32-3.9,20.725,1.85,11.351,22.675,0,22.675,0" transform="translate(293.658 203.166)" fill="#1b3753"/>
      <path id="Fill_115" data-name="Fill 115" d="M0,2.264C0,3.513,2.1,4.526,4.682,4.526S9.363,3.513,9.363,2.264,7.269,0,4.682,0,0,1.014,0,2.264" transform="translate(327.339 235.82)" fill="#fd5e5a"/>
      <path id="Fill_117" data-name="Fill 117" d="M7.8,0S6.26,3.09,0,2.947Z" transform="translate(330.794 228.236)" fill="#1b3753"/>
      <path id="Fill_119" data-name="Fill 119" d="M7.594,1.389A10.161,10.161,0,0,0,3.467,0C1.664,0,0,.731,0,1.389A7.4,7.4,0,0,1,3.536.695C5.1.938,5.825,2.138,6.451,2.138s1.144-.749,1.144-.749" transform="translate(329.108 225.335)" fill="#1b3753"/>
      <path id="Fill_121" data-name="Fill 121" d="M53.552,23.485s8.674,20.107-8.745,42.57S3.753,79.428.572,70.334,8.52,58.13,8.52,58.13s-2.123,10.289,3.533,9.8,7.608-1.821,5.335-12.9S23.334,48.4,27.856,41.148s0-12.788,0-21.357S38.342,0,38.342,0Z" transform="translate(257.166 214.515)" fill="#1b3753"/>
      <path id="Fill_123" data-name="Fill 123" d="M5.84,5.735S2.612-1.3,1.106.212-1.152,12.095,4.16,13.1,5.84,5.735,5.84,5.735" transform="translate(306.558 224.901)" fill="#fc7575"/>
      <path id="Fill_125" data-name="Fill 125" d="M2.919,3.067S1.255-.766.352.138.423,7.077,1.636,7.077,3.214,5,2.919,3.067" transform="translate(309.247 228.426)" fill="#fd5e5a"/>
      <path id="Fill_127" data-name="Fill 127" d="M1.562,1.3c0,.718-.331,1.3-.739,1.3S.084,2.02.084,1.3.415,0,.823,0s.739.583.739,1.3" transform="translate(335.377 230.113)" fill="#1b3753"/>
      <path id="Fill_129" data-name="Fill 129" d="M6.023,0H79.247c3.326,0,6.023,4,6.023,8.939v20.8c0,4.937-2.7,8.939-6.023,8.939H75.931l9.339,28.31L56.058,38.673H6.023C2.7,38.673,0,34.671,0,29.734V8.939C0,4,2.7,0,6.023,0" transform="translate(168.082 278.182)" fill="#5ca9ff"/>
      <path id="Fill_131" data-name="Fill 131" d="M9.943,10.063a2.792,2.792,0,0,1-1.517-.448c-2.3-1.483-4.68-2.963-7.066-4.4A2.807,2.807,0,0,1,4.252.4C6.69,1.87,9.118,3.381,11.465,4.9a2.808,2.808,0,0,1-1.522,5.168" transform="translate(507.021 54.058)" fill="#99d7ff"/>
      <g id="Group_135" data-name="Group 135">
        <path id="Clip_134-2" data-name="Clip 134" d="M0,0H491.642V471.614H0Z" transform="translate(0 0.622)" fill="none"/>
        <g id="Group_135-2" data-name="Group 135" clip-path="url(#clip-path-4)">
          <path id="Fill_133" data-name="Fill 133" d="M143.923,471.614a2.808,2.808,0,0,1-1.331-.336c-6.055-3.271-10.973-5.975-14.617-8.037a2.807,2.807,0,1,1,2.763-4.886c3.706,2.1,8.591,4.781,14.52,7.981a2.807,2.807,0,0,1-1.335,5.278Zm-34.511-21.3a2.789,2.789,0,0,1-1.67-.553c-4.544-3.374-8.975-6.834-13.17-10.283a2.807,2.807,0,1,1,3.562-4.338c4.178,3.435,8.535,6.837,12.951,10.111a2.808,2.808,0,0,1-1.673,5.064Zm-30.951-26.1a2.8,2.8,0,0,1-1.945-.782c-4.015-3.858-7.96-7.873-11.725-11.935a2.806,2.806,0,1,1,4.114-3.816c3.71,4,7.58,7.936,11.5,11.7a2.814,2.814,0,0,1,.08,3.969A2.78,2.78,0,0,1,78.461,424.218ZM51.373,394.144a2.776,2.776,0,0,1-2.221-1.09c-3.428-4.434-6.728-9.006-9.806-13.588A2.807,2.807,0,0,1,44,376.333c3.011,4.48,6.236,8.951,9.587,13.289a2.806,2.806,0,0,1-.5,3.938A2.822,2.822,0,0,1,51.373,394.144ZM29.326,360.2a2.8,2.8,0,0,1-2.475-1.482c-2.646-4.94-5.128-10.011-7.377-15.071a2.806,2.806,0,1,1,5.125-2.284c2.207,4.957,4.629,9.9,7.2,14.7a2.808,2.808,0,0,1-2.471,4.134ZM13.486,322.948A2.8,2.8,0,0,1,10.815,321c-1.7-5.3-3.235-10.736-4.547-16.169a2.806,2.806,0,0,1,2.069-3.386,2.841,2.841,0,0,1,.66-.078,2.8,2.8,0,0,1,2.726,2.147c1.273,5.268,2.764,10.572,4.433,15.763a2.805,2.805,0,0,1-2.67,3.667ZM4.621,283.454a2.81,2.81,0,0,1-2.778-2.441c-.174-1.34-.328-2.59-.469-3.824C.882,272.9.5,268.57.247,264.31a2.81,2.81,0,0,1,2.632-2.97c.051,0,.1,0,.154,0a2.818,2.818,0,0,1,2.816,2.637c.249,4.158.619,8.39,1.1,12.579.126,1.112.271,2.3.457,3.729a2.8,2.8,0,0,1-2.416,3.149A2.545,2.545,0,0,1,4.621,283.454ZM2.808,243.006c-.036,0-.074,0-.111,0A2.807,2.807,0,0,1,0,240.089c.217-5.53.633-11.157,1.235-16.723a2.8,2.8,0,0,1,2.789-2.5,2.844,2.844,0,0,1,.3.016,2.811,2.811,0,0,1,2.489,3.093c-.588,5.432-.994,10.929-1.206,16.337A2.8,2.8,0,0,1,2.808,243.006Zm4.946-40.178A2.813,2.813,0,0,1,5,199.452C6.132,194,7.457,188.521,8.941,183.159a2.805,2.805,0,1,1,5.407,1.495c-1.457,5.271-2.752,10.632-3.849,15.935A2.816,2.816,0,0,1,7.754,202.829ZM19.1,163.958a2.8,2.8,0,0,1-2.623-3.8c1.958-5.159,4.128-10.363,6.45-15.467a2.807,2.807,0,1,1,5.108,2.329c-2.261,4.969-4.385,10.06-6.313,15.133A2.823,2.823,0,0,1,19.1,163.958Zm17.283-36.616a2.808,2.808,0,0,1-2.435-4.2c2.742-4.808,5.687-9.614,8.754-14.286a2.808,2.808,0,1,1,4.692,3.085c-2.988,4.543-5.872,9.248-8.572,13.985A2.814,2.814,0,0,1,36.383,127.342ZM59.091,93.814a2.774,2.774,0,0,1-1.745-.609,2.814,2.814,0,0,1-.449-3.946c3.478-4.373,7.125-8.672,10.841-12.778a2.808,2.808,0,1,1,4.162,3.77c-3.644,4.026-7.214,8.233-10.611,12.5A2.791,2.791,0,0,1,59.091,93.814Zm27.6-29.629A2.806,2.806,0,0,1,84.805,59.3c4.131-3.75,8.474-7.37,12.908-10.76A2.806,2.806,0,1,1,101.121,53c-4.3,3.29-8.524,6.808-12.546,10.458A2.81,2.81,0,0,1,86.69,64.185Zm402.144-16.65a2.765,2.765,0,0,1-1.247-.293c-4.824-2.4-9.836-4.733-14.894-6.934a2.808,2.808,0,0,1,1.12-5.383,2.778,2.778,0,0,1,1.115.233c5.118,2.224,10.217,4.6,15.156,7.058a2.807,2.807,0,0,1-1.25,5.319Zm-369.56-7.308A2.807,2.807,0,0,1,117.849,35c4.762-2.8,9.743-5.472,14.8-7.929a2.807,2.807,0,1,1,2.452,5.051c-4.923,2.389-9.77,4.986-14.408,7.718A2.793,2.793,0,0,1,119.274,40.227Zm332.258-8.456a2.818,2.818,0,0,1-.938-.16c-5.1-1.809-10.354-3.543-15.623-5.153a2.808,2.808,0,1,1,1.641-5.37c5.379,1.645,10.714,3.405,15.857,5.231a2.806,2.806,0,0,1-.937,5.452ZM155.941,23.15a2.809,2.809,0,0,1-.95-5.451c5.133-1.842,10.5-3.565,15.959-5.121a2.807,2.807,0,0,1,3.22,4.067,2.782,2.782,0,0,1-1.683,1.331c-5.316,1.517-10.564,3.2-15.6,5.009A2.87,2.87,0,0,1,155.941,23.15ZM412.7,20.265a2.868,2.868,0,0,1-.663-.079c-5.22-1.267-10.629-2.474-16.078-3.588a2.807,2.807,0,0,1,.553-5.557,2.82,2.82,0,0,1,.567.058c5.443,1.11,10.921,2.331,16.28,3.63a2.808,2.808,0,0,1-.66,5.537ZM195,12.533a2.807,2.807,0,0,1-.531-5.562c5.338-1.043,10.885-1.978,16.489-2.779A2.807,2.807,0,0,1,213.6,8.657a2.779,2.779,0,0,1-1.846,1.093c-5.532.789-10.985,1.708-16.207,2.732A2.916,2.916,0,0,1,195,12.533Zm177.954-.078a2.661,2.661,0,0,1-.429-.035c-5.432-.831-10.93-1.586-16.34-2.244a2.805,2.805,0,0,1,.363-5.59,2.884,2.884,0,0,1,.316.017c5.642.689,11.2,1.453,16.51,2.271a2.8,2.8,0,0,1,2.348,3.2A2.822,2.822,0,0,1,372.954,12.454ZM332.7,7.8c-.067,0-.133,0-.2-.008l-.031,0c-5.361-.432-10.9-.8-16.476-1.108a2.807,2.807,0,0,1,.215-5.608h.092c5.632.307,11.224.684,16.618,1.12a2.8,2.8,0,0,1,2.572,3.02A2.819,2.819,0,0,1,332.7,7.8Zm-97.551-.643a2.808,2.808,0,0,1-2.133-4.627,2.786,2.786,0,0,1,1.912-.977c5.389-.431,10.991-.776,16.65-1.025.05,0,.1,0,.149,0a2.808,2.808,0,0,1,.1,5.614c-5.542.241-11.075.581-16.446,1.012C235.312,7.149,235.231,7.153,235.153,7.153ZM292.225,5.8h-.064c-5.4-.12-10.657-.18-15.62-.18h-.894a2.808,2.808,0,0,1,0-5.615h.894c4.994,0,10.291.06,15.745.179a2.808,2.808,0,0,1-.06,5.616Z" transform="translate(0 0.621)" fill="#99d7ff"/>
        </g>
      </g>
      <path id="Fill_136" data-name="Fill 136" d="M102.924,50.1,20.244,0,0,20.657Z" transform="translate(495.554 38.371)" fill="#0a4cfe"/>
      <path id="Fill_138" data-name="Fill 138" d="M0,38.772,1.182,0,82.693,27.163Z" transform="translate(515.785 61.312)" fill="#99d7ff"/>
      <path id="Fill_140" data-name="Fill 140" d="M0,0,82.78,82.2.1,32.092Z" transform="translate(515.698 6.279)" fill="#99d7ff"/>
      <path id="Fill_142" data-name="Fill 142" d="M0,0,21.413,2.285l-.171,5.63Z" transform="translate(495.554 59.028)" fill="#0033bf"/>
    </g>
  </g>
</svg>
