<svg xmlns="http://www.w3.org/2000/svg" xmlns:xlink="http://www.w3.org/1999/xlink" width="696.144" height="620.705" viewBox="0 0 696.144 620.705">
  <defs>
    <clipPath id="clip-path">
      <path id="Clip_12" data-name="Clip 12" d="M0,0H133.216V90.954H0Z" transform="translate(0.928 0.495)" fill="none"/>
    </clipPath>
    <clipPath id="clip-path-2">
      <path id="Clip_143" data-name="Clip 143" d="M0,0H151.551V122.616H0Z" transform="translate(0.67 0.295)" fill="none"/>
    </clipPath>
  </defs>
  <g id="transferData" transform="translate(0 -0.295)">
    <path id="Fill_1" data-name="Fill 1" d="M140,0c-15.54,1.858-30.577,4.2-44.8,7.074C.3,26.189.271,56.8.212,58.379.207,59.661.069,129.971.069,129.786.041,144.463.024,153.921,0,167c.068-29.392,61.435-49.809,140-58.808Z" transform="translate(131 231)" fill="#b3ccff"/>
    <path id="Fill_3" data-name="Fill 3" d="M266.192,36.525c-19.5-11.09-46.432-18.545-68.257-23.161C140.862,1.262,67.793-2.779,0,1.89v108.3c98.227-6.621,211.573,3.43,265.991,34.335,16.177,9.189,23.829,18.913,23.81,28.472q0-.7,0-1.407c.021-10.727.19-102.356.2-104.875.015-14.2-11.452-23.171-23.808-30.193" transform="translate(308 225)" fill="#b3ccff"/>
    <path id="Fill_5" data-name="Fill 5" d="M98,1.711C80.92.591,63.377,0,45.752,0,30.368,0,15.018.433,0,1.3V89.931c15.9-.88,32.079-1.327,48.232-1.327,17.166,0,33.8.474,49.768,1.4Z" transform="translate(317 236)" fill="#7e9de0"/>
    <path id="Fill_7" data-name="Fill 7" d="M55,8.292C38.1,4.827,19.546,2.04,0,0V88.126C19.69,90.016,38.092,92.671,55,96Z" transform="translate(444 240)" fill="#7e9de0"/>
    <path id="Fill_9" data-name="Fill 9" d="M24.279,10.963A152.367,152.367,0,0,0,0,0V88.181a188.672,188.672,0,0,1,33.565,14.757,98.635,98.635,0,0,1,9.3,6.061L43,32.915c.01-7.783-5.589-14.348-18.721-21.952" transform="translate(544 259)" fill="#7e9de0"/>
    <g id="Group_13" data-name="Group 13" transform="translate(562 103)">
      <path id="Clip_12-2" data-name="Clip 12" d="M0,0H133.216V90.954H0Z" transform="translate(0.928 0.495)" fill="none"/>
      <g id="Group_13-2" data-name="Group 13" clip-path="url(#clip-path)">
        <path id="Fill_11" data-name="Fill 11" d="M131.21,90.954H2.007A2.007,2.007,0,0,1,0,88.945V2.008A2.007,2.007,0,0,1,2.007,0h129.2a2.008,2.008,0,0,1,2.007,2.008V88.945a2.008,2.008,0,0,1-2.007,2.009" transform="translate(0.928 0.495)" fill="#b0c2fe"/>
      </g>
    </g>
    <path id="Fill_14" data-name="Fill 14" d="M83.1,57H5.9A5.95,5.95,0,0,1,0,51V6A5.948,5.948,0,0,1,5.9,0H83.1A5.948,5.948,0,0,1,89,6V51a5.95,5.95,0,0,1-5.9,6" transform="translate(584 121)" fill="#95a9fe"/>
    <path id="Fill_16" data-name="Fill 16" d="M69,0H0L33.924,33Z" transform="translate(595 127)" fill="#fff"/>
    <path id="Fill_18" data-name="Fill 18" d="M39.967,37.648,0,0V43H80V1.179Z" transform="translate(589 130)" fill="#fff"/>
    <path id="Fill_20" data-name="Fill 20" d="M278,12c0,6.628-62.234,12-139,12S0,18.627,0,12,62.232,0,139,0,278,5.371,278,12" transform="translate(249 596)" fill="#235893"/>
    <path id="Fill_22" data-name="Fill 22" d="M0,4.358,4.455,23,18,18.995S17.094,11.606,15.415,0Z" transform="translate(448 580)" fill="#fc7575"/>
    <path id="Fill_24" data-name="Fill 24" d="M0,.565.033,19l14.1-.661S14.957,11.226,16,0Z" transform="translate(367 579)" fill="#fc7575"/>
    <path id="Fill_26" data-name="Fill 26" d="M63.7,1.041s9.976,4,14.818,9.01S85.561,25,84.592,32.868s-3.044,9.294-3.044,9.294,4.58,11.011,3.189,20.447S72.969,81.055,66.187,82.342c0,0,9.4-11.154,8.162-17.017,0,0-6.777,9.581-13.559,13.3S21.214,114.995,0,91.661c0,0,17.338-7.746,11.663-23.189s9.964-29.456,9.964-29.456S9.449,45.737,3.084,36.728,7.65,20.713,8.2,21.284,3.915,30.007,9.588,32.152s6.988-6.507,15.915-15.73S59.407-3.392,63.7,1.041" transform="translate(368 145)" fill="#170f33"/>
    <path id="Fill_28" data-name="Fill 28" d="M17.736,35.03,23,1.237,5.251,0,0,27.881C3.817,31.446,10.712,38.6,17.736,35.03" transform="translate(411 192)" fill="#fc7575"/>
    <path id="Fill_30" data-name="Fill 30" d="M17.679,16,20,1.237,2.083,0,0,10.966c.211.264.435.527.675.784,3.308,3.572,10.708,9.322,17,4.25" transform="translate(413 192)" fill="#fd5e5a"/>
    <path id="Fill_32" data-name="Fill 32" d="M25.743,1.5S33,4.09,33,13.969c0,0-.791,22.623-9.819,33.931-6.617,8.287-15.443,2.053-19.132-1.641C-1.326,40.877.2,33.558.2,23.679S15.826-5.518,25.743,1.5" transform="translate(411 153)" fill="#fc7575"/>
    <path id="Fill_34" data-name="Fill 34" d="M3,2.5C3,3.88,2.328,5,1.5,5S0,3.88,0,2.5.672,0,1.5,0,3,1.12,3,2.5" transform="translate(420 175)" fill="#2d1e66"/>
    <path id="Fill_36" data-name="Fill 36" d="M3,2.5C3,3.879,2.329,5,1.5,5S0,3.879,0,2.5.673,0,1.5,0,3,1.119,3,2.5" transform="translate(436 177)" fill="#2d1e66"/>
    <path id="Fill_38" data-name="Fill 38" d="M0,1.509S3.488-.457,6.071.1,9,2,9,2A7.68,7.68,0,0,0,4.091,1C1.291,1.4,0,1.509,0,1.509" transform="translate(416 175)" fill="#2d1e66"/>
    <path id="Fill_40" data-name="Fill 40" d="M9,3S6.159.031,3.451,0,0,1.34,0,1.34a7.37,7.37,0,0,1,5.13.116C7.763,2.564,9,3,9,3" transform="translate(435 178)" fill="#2d1e66"/>
    <path id="Fill_42" data-name="Fill 42" d="M2.15,0a29.065,29.065,0,0,0,1.9,5.66A15.693,15.693,0,0,1,0,6.991c3.768.127,4.827-1.092,5-1.14A39.249,39.249,0,0,0,2.15,0" transform="translate(430 182)" fill="#2d1e66"/>
    <path id="Fill_44" data-name="Fill 44" d="M9,3C9,4.657,6.986,6,4.5,6S0,4.657,0,3,2.014,0,4.5,0,9,1.343,9,3" transform="translate(415 182)" fill="#fd5e5a"/>
    <path id="Fill_46" data-name="Fill 46" d="M4,0C1.792,0,0,1.355,0,3.025,0,4.511,1.42,5.747,3.288,6,3.95,4.038,4.517,2.05,5,.1A5.241,5.241,0,0,0,4,0" transform="translate(437 183)" fill="#fd5e5a"/>
    <path id="Fill_48" data-name="Fill 48" d="M37.962,6.938s1.262,13.508-10.733,14.383a39.014,39.014,0,0,0-19.619,6.8L2.267,44S-.32,31.743.033,22.752,13.322,1.255,21.9.112,37.962,6.938,37.962,6.938" transform="translate(403 145)" fill="#2d1e66"/>
    <path id="Fill_50" data-name="Fill 50" d="M5.2,2.353S4.324-.54,1.589.09s-1.395,8.134,0,9.432S7.906,9.8,5.2,2.353" transform="translate(407 173)" fill="#fc7575"/>
    <path id="Fill_52" data-name="Fill 52" d="M3,2.743S1.566-1,.43.259.659,7,1.649,7,3,2.743,3,2.743" transform="translate(409 174)" fill="#fd5e5a"/>
    <path id="Fill_54" data-name="Fill 54" d="M.655.213C.328-.027.431-.112.192.213c-.676.919.5,3.94,2.5,4.579C5.286,5.619,9,3.8,9,2.306,9,1.822,5.609,3.694.655.213" transform="translate(422 193)" fill="#2d1e66"/>
    <path id="Fill_56" data-name="Fill 56" d="M0,1.367A33.912,33.912,0,0,1,6.2,0c1.773,0,4.2,1.746,3.74,2.77S7.356,1.063,5.894,1.063,0,1.367,0,1.367" transform="translate(418 171)" fill="#2d1e66"/>
    <path id="Fill_58" data-name="Fill 58" d="M7,3S5.984.593,4.352.112-.086.79,0,1.984,2.942.906,4.29,1.3A8.2,8.2,0,0,1,7,3" transform="translate(434 173)" fill="#2d1e66"/>
    <path id="Fill_60" data-name="Fill 60" d="M48,176.821c-8.61-11.034-28.533-40.038-30.293-74.133C15.143,53,22.877,37.24,22.877,37.24s5.741-4.395,7.823-7.623,6.409-6.387,4.363-7.645-4.919,2.63-5.812,4.013a1.09,1.09,0,0,1-1.258.455,2.187,2.187,0,0,1-1.577-2.791A27.373,27.373,0,0,1,29.652,17.4c4.163-6.459,7.367-12.554,5.316-12.1S26.2,17.4,24.709,19.7s3.851-10.6,5.821-16.041-1.455-4.01-2.352-.91S21.995,18.7,21.129,18.168s4.6-15.417,2.478-16.724S22,3.531,21.2,5.9,19.815,16.65,17.592,17.143c0,0-.83-11.41-1.813-10.315-.49.546-1.927,12.7-2.012,17.841-.2,12.1-17.153,76.651-13.158,93.63,3.9,16.554,9.012,64.091,22.616,73.65,15.991.567,17.356-3.621,24.774-15.129" transform="translate(341 43)" fill="#fc7575"/>
    <path id="Fill_62" data-name="Fill 62" d="M16.815,0A36.247,36.247,0,0,0,0,5.9a33.607,33.607,0,0,0,.572,6.923C1.567,17.366,2.647,24.226,3.95,32L21,23A117.106,117.106,0,0,1,16.815,0" transform="translate(342 149)" fill="#fd5e5a"/>
    <path id="Fill_64" data-name="Fill 64" d="M14.344,0C25.732,7.914,55.563,26.081,89.753,26.388c49.823.446,65.288-7.718,65.288-7.718s4.165-5.759,7.313-7.915,6.131-6.49,7.475-4.553-2.434,4.888-3.782,5.812a1.045,1.045,0,0,0-.4,1.241,2.2,2.2,0,0,0,2.856,1.418,27.682,27.682,0,0,0,6.118-3.4c6.3-4.31,12.266-7.677,11.893-5.664s-11.746,9.023-13.993,10.562,10.446-4.177,15.818-6.317,4.069,1.25,1,2.25S173.63,18.765,174.2,19.584s15.244-5.107,16.637-3.1-2.024,1.652-4.366,2.524-10.7,1.786-11.1,3.968c0,0,11.453.335,10.4,1.336-.529.5-12.633,2.393-17.774,2.689-12.1.694-76.013,19.82-93.168,16.637C58.1,40.538,10.32,37.523.2,24.7-1.009,9.181,3.126,7.681,14.344,0" transform="translate(438 247)" fill="#fc7575"/>
    <path id="Fill_66" data-name="Fill 66" d="M25,7.721A137.413,137.413,0,0,1,.828,0C-.739,4.393.018,14.557,2.255,23.369,9.2,24.4,15.924,25.239,21.616,26A57.076,57.076,0,0,0,25,7.721" transform="translate(481 264)" fill="#fd5e5a"/>
    <path id="Fill_68" data-name="Fill 68" d="M19,0S0,42.95,0,56.373s9.97,209.4,9.97,209.4L41.112,267.1S39.772,83.886,44.463,79.19s9.381-4.028,9.381-4.028L93.939,270,123,267.786S107.454,81.874,99.412,61.74,73.949,0,73.949,0Z" transform="translate(349 315)" fill="#dfb866"/>
    <path id="Fill_70" data-name="Fill 70" d="M30.661,11A59.955,59.955,0,0,1,0,2.106L1.514,0C1.748.158,25.39,15.964,50.848,3.882L52,6.2A49.319,49.319,0,0,1,30.661,11" transform="translate(365 328)" fill="#ecd4a3"/>
    <path id="Fill_72" data-name="Fill 72" d="M7,3.5A3.5,3.5,0,1,1,3.5,0,3.5,3.5,0,0,1,7,3.5" transform="translate(389 326)" fill="#ecd4a3"/>
    <path id="Fill_74" data-name="Fill 74" d="M2.992,18,0,17.732,2.007,0,5,.267Z" transform="translate(382 318)" fill="#ecd4a3"/>
    <path id="Fill_76" data-name="Fill 76" d="M0,14.633S10,77.926,18.584,77.926c0,0-15.647,61.578,16.152,77.853s66.365,1.457,77.228-9.376,21.7-11.1,34.829-5.558S169,118.334,169,104.17,117.851,72.628,92.109,61.975,57.45,52.255,47.86,37.658,38.269-3.617,28.174.409,0,14.633,0,14.633" transform="translate(332 159)" fill="#8937dc"/>
    <path id="Fill_78" data-name="Fill 78" d="M36.893,15.327C18.057,7.575,8.271,6.018.614,0-.592,11.722-1.221,34.578,10.757,42.6,24.664,51.922,56.607,40.356,70,28.5c-14.77-6.505-21.637-8.452-33.107-13.172" transform="translate(387 206)" fill="#fc7575"/>
    <path id="Fill_80" data-name="Fill 80" d="M54,8.007S32.291,20.992,30.14,26.672s-9.651,13.809-4.671,32.105S11.481,84.888,4.629,79.145s-5.453-17.922,0-17.025c0,0,2.616,5.555,6.875,1.288s.543-19.891-.184-29.93S35.78-16.933,54,8.007" transform="translate(383 148)" fill="#2d1e66"/>
    <path id="Fill_82" data-name="Fill 82" d="M23,.652l-1.432,14.22c-.58,5.755,1.61,10.571-5.933,11.069S.41,23.68.014,19.884,7.816,7.962,8.191,4.238,10.84-.814,11.959.486,23,.652,23,.652" transform="translate(357 593)" fill="#70a3ff"/>
    <path id="Fill_84" data-name="Fill 84" d="M20,4.219c-1.358,1.375-3.151,1.422-5.11,1.32C10.72,5.343,1.648,4.164.048,0a4.444,4.444,0,0,0,.9,3.186C5.587,9.521,18.918,9.328,20,4.219" transform="translate(358 613)" fill="#385280"/>
    <path id="Fill_86" data-name="Fill 86" d="M.021,15.2c-.44,4.679,6.241,6.664,8.737,2.6.039-.064.078-.128.117-.2a83.186,83.186,0,0,0,5.195-9.9c.908-1.657,2.1-3.93-1.614-5.955S3.064-.6,2.893,1.069C2.78,2.183.682,8.165.021,15.2" transform="translate(366 586)" fill="#385280"/>
    <path id="Fill_88" data-name="Fill 88" d="M8.686,1.777c3.378,2.051,2.293,4.355,1.467,6.034A88.616,88.616,0,0,1,5.432,17.837l-.108.2a4.657,4.657,0,0,1-.7.965c.06-.1.12-.193.177-.3.036-.065.073-.128.108-.2A88.775,88.775,0,0,0,9.633,8.479C10.458,6.8,11.545,4.5,8.166,2.445,5.393.762,1.42.235,0,1.033.249-.6,5.341-.254,8.686,1.777" transform="translate(370 586)" fill="#fff"/>
    <path id="Fill_90" data-name="Fill 90" d="M0,10.481S.818.494,2.562.226A33.354,33.354,0,0,1,7,0S4.976,9.989,2.764,11.516A1.635,1.635,0,0,1,0,10.481" transform="translate(374 594)" fill="#5491ff"/>
    <path id="Fill_92" data-name="Fill 92" d="M0,.3A.288.288,0,0,0,.145.571c4.031,2.719,10.326.739,10.59.653.222-.072.325-.262.229-.429a.5.5,0,0,0-.573-.172c-.06.019-6.049,1.9-9.663-.538A.542.542,0,0,0,.112.109.294.294,0,0,0,0,.3" transform="translate(367 596)" fill="#fff"/>
    <path id="Fill_94" data-name="Fill 94" d="M0,.385A.4.4,0,0,0,.14.732c2.547,2.3,10.183.778,10.507.712a.427.427,0,0,0,.344-.5.45.45,0,0,0-.532-.327c-2.078.423-7.87,1.159-9.7-.5A.463.463,0,0,0,.124.132.412.412,0,0,0,0,.385" transform="translate(366 600)" fill="#fff"/>
    <path id="Fill_96" data-name="Fill 96" d="M0,.355A.383.383,0,0,0,.1.644C2,2.759,9.754,1.8,10.633,1.681A.4.4,0,0,0,11,1.235.424.424,0,0,0,10.509.9c-2.254.3-8.4.744-9.749-.76A.455.455,0,0,0,.156.09.379.379,0,0,0,0,.355" transform="translate(366 603)" fill="#fff"/>
    <path id="Fill_98" data-name="Fill 98" d="M14.373,3.246s1.3,5.537.152,6.471S-.225,9.167,0,6.846,3.749.248,5,.011s9.377,3.235,9.377,3.235" transform="translate(361 606)" fill="#5491ff"/>
    <path id="Fill_100" data-name="Fill 100" d="M7.819,0S.2,1.239,0,6.245,6.106,18,6.106,18L12,14.034a14.007,14.007,0,0,1-3.13-7.47A51.14,51.14,0,0,0,7.819,0" transform="translate(461 586)" fill="#5491ff"/>
    <path id="Fill_102" data-name="Fill 102" d="M.354,19.708,13.4,20c5.374.119,13.929.943,16.614,1s12.551-5.941,11.96-7.987S32.545,11.282,27.993,8.9,15.614.793,13.992.21C11.454-.7,4.831,1.547,3.26,3.035S-.959,18.347.354,19.708" transform="translate(450 595)" fill="#547abf"/>
    <path id="Fill_104" data-name="Fill 104" d="M0,1.881C21.308-1,15.105,5.35,36,0,30.908,1.939,23.387,3.813,18.044,2.633a47.8,47.8,0,0,0-8.961-.8C6.061,1.76,3.034,1.815,0,1.881" transform="translate(453 609)" fill="#385280"/>
    <path id="Fill_106" data-name="Fill 106" d="M.183,5.673A.8.8,0,0,0,1.352,5.8,43.137,43.137,0,0,1,8,1.152C7.506.783,7,.395,6.493,0A47.127,47.127,0,0,0,.307,4.426.932.932,0,0,0,.183,5.673" transform="translate(467 600)" fill="#fff"/>
    <path id="Fill_108" data-name="Fill 108" d="M.416,6.883a.854.854,0,0,0,1.162-.295A48.668,48.668,0,0,1,6,1.519,2.733,2.733,0,0,0,5.127,0,66.974,66.974,0,0,0,.12,5.736a.828.828,0,0,0,.3,1.147" transform="translate(466 595)" fill="#fff"/>
    <path id="Fill_110" data-name="Fill 110" d="M0,0,36,.914V9L0,8.454Z" transform="translate(355 574)" fill="#ecd4a3"/>
    <path id="Fill_112" data-name="Fill 112" d="M0,13.471,39.948,208,54,206.927,10.568,0Z" transform="translate(402 377)" fill="#ff815c"/>
    <path id="Fill_114" data-name="Fill 114" d="M0,2.381,36,0V6.857L1.646,10Z" transform="translate(438 576)" fill="#ecd4a3"/>
    <path id="Fill_116" data-name="Fill 116" d="M205,63.871C98.42,60.092.13,37.654.2,0L0,107.866c-.068,36.3,97.578,60.11,205,64.134Z" transform="translate(132 290)" fill="#dae6ff"/>
    <path id="Fill_118" data-name="Fill 118" d="M0,0V13.329C-.069,50.865,98.317,73.234,205,77V63.671C98.317,59.907-.069,37.536,0,0" transform="translate(128 426)" fill="#dae6ff"/>
    <path id="Fill_120" data-name="Fill 120" d="M.5,0,.484,12.961c0,.348.006.693.016,1.039L.516.448C.51.3.5.151.5,0" transform="translate(127 535)" fill="#dae6ff"/>
    <path id="Fill_122" data-name="Fill 122" d="M.018,0,0,9.164C-.068,45.86,97.577,69.93,205,74V63.966C98.428,59.929,1.48,36.206.018,0" transform="translate(135 475)" fill="#dae6ff"/>
    <path id="Fill_124" data-name="Fill 124" d="M.142,0,0,76.547C-.027,90.365,27.443,105.88,76,117V28.313C46.268,22.082,18.041,13.064.142,0" transform="translate(141 321)" fill="#b3cbff"/>
    <path id="Fill_126" data-name="Fill 126" d="M0,0V9.846C39.585,17.189,80.416,19.981,102,21V11.154C80.416,10.135,39.585,7.343,0,0" transform="translate(225 352)" fill="#b3cbff"/>
    <path id="Fill_128" data-name="Fill 128" d="M0,9.846C39.585,17.189,80.416,19.981,102,21V11.154C80.416,10.135,39.585,7.342,0,0Z" transform="translate(225 372)" fill="#b3cbff"/>
    <path id="Fill_130" data-name="Fill 130" d="M0,9.847C39.585,17.188,80.416,19.981,102,21V11.153C80.416,10.135,39.585,7.343,0,0Z" transform="translate(225 393)" fill="#b3cbff"/>
    <path id="Fill_132" data-name="Fill 132" d="M0,9.846C39.585,17.189,80.416,19.981,102,21V11.154C80.416,10.135,39.585,7.343,0,0Z" transform="translate(225 413)" fill="#b3cbff"/>
    <path id="Fill_134" data-name="Fill 134" d="M0,7.035C28.035,12.768,62.372,17.1,102,19V11.267C80.416,10.238,39.585,7.416,0,0Z" transform="translate(225 433)" fill="#b3cbff"/>
    <path id="Fill_136" data-name="Fill 136" d="M70,0c-.012,10.393-9.708,18.422-9.084,17.818C48.427,29.868,26.98,39.428,0,46.636V154c9.258-2.544,17.989-5.374,26.079-8.5,16.71-6.43,43.247-19.361,43.713-37.2,0-.118-.034,19.813.207-108.3" transform="translate(527 291)" fill="#dae6ff"/>
    <path id="Fill_138" data-name="Fill 138" d="M0,22.973C21.755,16.646,38.841,8.948,51,0c0,0-.138,73.265-.145,77.079-.286,8.706-14.769,19.57-37.826,28.367C8.912,107.023,4.557,108.543,0,110Z" transform="translate(537 322)" fill="#95a9fe"/>
    <path id="Fill_140" data-name="Fill 140" d="M86.824,0C134.873-.258,173.9,14.2,174,32.3c.05,9.05-9.644,17.293-25.356,23.308L156.9,87,127.139,61.661a210.956,210.956,0,0,1-39.963,3.875C39.128,65.795.1,51.338,0,33.242S38.774.265,86.824,0" transform="translate(157 9)" fill="#b0c2fe"/>
    <g id="Group_144" data-name="Group 144" transform="translate(451)">
      <path id="Clip_143-2" data-name="Clip 143" d="M0,0H151.551V122.616H0Z" transform="translate(0.67 0.295)" fill="none"/>
      <g id="Group_144-2" data-name="Group 144" clip-path="url(#clip-path-2)">
        <path id="Fill_142" data-name="Fill 142" d="M140.263,0H11.29A11.3,11.3,0,0,0,0,11.307v38.93A11.3,11.3,0,0,0,11.29,61.544H53.521L32.257,122.616,69.634,61.544h70.629a11.3,11.3,0,0,0,11.288-11.307V11.307A11.3,11.3,0,0,0,140.263,0" transform="translate(0.67 0.294)" fill="#f99"/>
      </g>
    </g>
    <path id="Fill_145" data-name="Fill 145" d="M11.322,0H140.677A11.288,11.288,0,0,1,152,11.25V49.984a11.288,11.288,0,0,1-11.323,11.25H98.319L119.648,122,82.16,61.235H11.322A11.286,11.286,0,0,1,0,49.984V11.25A11.286,11.286,0,0,1,11.322,0" transform="translate(16 125)" fill="#f99"/>
    <path id="Fill_147" data-name="Fill 147" d="M103.25,93.994,8.024,90.347A8.371,8.371,0,0,1,.006,81.641L1.1,52.77A8.362,8.362,0,0,1,9.751,44.7L40.932,45.9,26.944,0,52.828,46.354l52.149,2a8.371,8.371,0,0,1,8.016,8.706L111.9,85.928a8.361,8.361,0,0,1-8.652,8.065" transform="translate(568 440)" fill="#f99"/>
    <path id="Fill_149" data-name="Fill 149" d="M103,0C98.453,15.973,87.263,31.076,72.671,37.451c-17.342,8.638-38.869,2.481-44.727,1.6C27.536,38.859,4.75,32.942,0,16.617c7.312,18.106,34.932,24.318,56.411,22.85C79.042,37.26,95.563,20.109,103,0" transform="translate(354 262)" fill="#dae6ff"/>
    <path id="Fill_151" data-name="Fill 151" d="M8.578,9a2.351,2.351,0,0,1-1.31-.4c-1.983-1.325-4.036-2.652-6.1-3.938A2.567,2.567,0,0,1,.346,1.216,2.373,2.373,0,0,1,3.668.359c2.1,1.313,4.2,2.665,6.222,4.021a2.565,2.565,0,0,1,.724,3.469A2.4,2.4,0,0,1,8.578,9" transform="translate(454 154)" fill="#99d7ff"/>
    <path id="Fill_153" data-name="Fill 153" d="M128.805,422a2.481,2.481,0,0,1-1.192-.3c-5.371-2.9-9.771-5.32-13.08-7.192a2.512,2.512,0,0,1,2.473-4.373c3.27,1.849,7.642,4.253,12.994,7.143a2.512,2.512,0,0,1-1.2,4.722ZM97.919,402.939a2.493,2.493,0,0,1-1.495-.494c-4.06-3.014-8.025-6.11-11.786-9.2a2.511,2.511,0,1,1,3.189-3.88c3.741,3.076,7.641,6.119,11.59,9.046a2.513,2.513,0,0,1-1.5,4.531Zm-27.7-23.35a2.494,2.494,0,0,1-1.741-.7c-3.6-3.456-7.128-7.049-10.494-10.679a2.511,2.511,0,1,1,3.682-3.415c3.319,3.578,6.782,7.1,10.292,10.471a2.518,2.518,0,0,1,.073,3.552A2.492,2.492,0,0,1,70.22,379.589Zm-24.244-26.91a2.489,2.489,0,0,1-1.988-.977c-3.078-3.982-6.03-8.073-8.777-12.158a2.512,2.512,0,0,1,4.17-2.8c2.689,4,5.576,8,8.581,11.89a2.509,2.509,0,0,1-.451,3.523A2.521,2.521,0,0,1,45.976,352.679ZM26.245,322.308a2.508,2.508,0,0,1-2.215-1.326c-2.362-4.41-4.583-8.947-6.6-13.487a2.511,2.511,0,1,1,4.587-2.044c1.975,4.436,4.142,8.863,6.442,13.158a2.514,2.514,0,0,1-2.212,3.7ZM12.07,288.973a2.5,2.5,0,0,1-2.39-1.741c-1.532-4.756-2.9-9.623-4.071-14.466a2.515,2.515,0,0,1,1.851-3.03,2.546,2.546,0,0,1,.59-.07,2.5,2.5,0,0,1,2.442,1.92c1.137,4.708,2.472,9.453,3.969,14.1a2.514,2.514,0,0,1-1.62,3.159A2.47,2.47,0,0,1,12.07,288.973ZM4.136,253.633A2.516,2.516,0,0,1,1.65,251.45c-.168-1.292-.3-2.379-.419-3.422C.79,244.207.45,240.329.221,236.5a2.517,2.517,0,0,1,2.355-2.66c.046,0,.092,0,.138,0a2.522,2.522,0,0,1,2.52,2.36c.222,3.713.554,7.5.985,11.256.123,1.083.261,2.206.41,3.337a2.515,2.515,0,0,1-2.162,2.818A2.573,2.573,0,0,1,4.136,253.633ZM2.513,217.442c-.032,0-.066,0-.1,0A2.518,2.518,0,0,1,0,214.83c.194-4.94.565-9.974,1.1-14.962a2.508,2.508,0,0,1,2.5-2.242,2.546,2.546,0,0,1,.272.015A2.51,2.51,0,0,1,6.1,200.408c-.526,4.853-.889,9.772-1.079,14.62A2.507,2.507,0,0,1,2.513,217.442ZM6.94,181.489a2.431,2.431,0,0,1-.511-.053,2.514,2.514,0,0,1-1.951-2.966c1.01-4.874,2.2-9.78,3.524-14.58a2.51,2.51,0,1,1,4.839,1.337c-1.3,4.716-2.462,9.513-3.444,14.258A2.522,2.522,0,0,1,6.94,181.489Zm10.153-34.78a2.512,2.512,0,0,1-2.347-3.4c1.759-4.629,3.7-9.285,5.774-13.839a2.512,2.512,0,1,1,4.572,2.083c-2.03,4.459-3.93,9.016-5.649,13.542A2.528,2.528,0,0,1,17.093,146.709ZM32.56,113.944a2.511,2.511,0,0,1-2.178-3.757c2.458-4.31,5.094-8.612,7.834-12.785a2.513,2.513,0,0,1,4.2,2.76c-2.664,4.049-5.245,8.259-7.672,12.514A2.522,2.522,0,0,1,32.56,113.944Zm20.324-30a2.488,2.488,0,0,1-1.561-.545,2.515,2.515,0,0,1-.4-3.53c3.1-3.9,6.367-7.746,9.7-11.435a2.513,2.513,0,0,1,3.725,3.373c-3.258,3.6-6.454,7.364-9.5,11.188A2.5,2.5,0,0,1,52.884,83.943Zm24.7-26.511A2.511,2.511,0,0,1,75.9,53.06c3.687-3.346,7.574-6.586,11.553-9.628a2.511,2.511,0,1,1,3.05,3.991c-3.841,2.937-7.619,6.085-11.228,9.358A2.508,2.508,0,0,1,77.584,57.432Zm359.9-14.9a2.468,2.468,0,0,1-1.116-.264c-4.327-2.152-8.812-4.239-13.329-6.2a2.512,2.512,0,0,1,1-4.816,2.493,2.493,0,0,1,1,.208c4.623,2.011,9.187,4.136,13.564,6.315a2.511,2.511,0,0,1-1.12,4.76ZM106.744,36a2.513,2.513,0,0,1-1.273-4.678c4.239-2.5,8.7-4.883,13.247-7.093a2.512,2.512,0,1,1,2.194,4.519c-4.422,2.146-8.76,4.47-12.9,6.9A2.51,2.51,0,0,1,106.744,36ZM404.1,28.428a2.51,2.51,0,0,1-.84-.144c-4.554-1.616-9.258-3.167-13.981-4.61a2.512,2.512,0,1,1,1.466-4.805c4.811,1.469,9.586,3.043,14.193,4.679a2.512,2.512,0,0,1-.838,4.88ZM139.561,20.713a2.512,2.512,0,0,1-.85-4.877c4.616-1.656,9.421-3.2,14.282-4.581a2.511,2.511,0,1,1,1.376,4.829c-4.759,1.358-9.456,2.866-13.96,4.481A2.528,2.528,0,0,1,139.561,20.713ZM369.35,18.131a2.6,2.6,0,0,1-.594-.07c-4.66-1.131-9.5-2.211-14.388-3.21a2.512,2.512,0,0,1,.5-4.973,2.529,2.529,0,0,1,.506.052c4.893,1,9.795,2.091,14.57,3.25a2.511,2.511,0,0,1-.59,4.952ZM174.518,11.213a2.512,2.512,0,0,1-.477-4.978c4.767-.931,9.732-1.767,14.757-2.487a2.512,2.512,0,0,1,2.361,4,2.488,2.488,0,0,1-1.652.979c-4.933.7-9.814,1.526-14.506,2.444A2.615,2.615,0,0,1,174.518,11.213Zm159.26-.071a2.421,2.421,0,0,1-.384-.03c-4.874-.745-9.794-1.42-14.624-2.007a2.511,2.511,0,0,1,.324-5,2.59,2.59,0,0,1,.284.016c4.99.609,9.962,1.292,14.778,2.031a2.507,2.507,0,0,1,2.1,2.863A2.522,2.522,0,0,1,333.778,11.142ZM297.757,6.975c-.071,0-.139,0-.205-.009-4.82-.386-9.781-.719-14.746-.991A2.512,2.512,0,0,1,283,.956h.083c5.081.278,10.085.615,14.873,1a2.51,2.51,0,0,1,2.3,2.7A2.522,2.522,0,0,1,297.757,6.975ZM210.451,6.4a2.512,2.512,0,0,1-.2-5.016c4.8-.385,9.817-.694,14.9-.918.045,0,.09,0,.133,0a2.514,2.514,0,0,1,.086,5.025c-4.967.216-9.92.52-14.72.9C210.581,6.4,210.512,6.4,210.451,6.4ZM261.53,5.184h-.058c-4.841-.107-9.545-.161-13.98-.161h-.8a2.511,2.511,0,0,1,0-5.023h.8c4.462,0,9.2.054,14.091.16a2.512,2.512,0,0,1-.054,5.024Z" transform="translate(0 106)" fill="#99d7ff"/>
    <path id="Fill_155" data-name="Fill 155" d="M92,45,18.1,0,0,18.553Z" transform="translate(443 140)" fill="#0a4cfe"/>
    <path id="Fill_157" data-name="Fill 157" d="M0,35,1.057,0,74,24.521Z" transform="translate(461 161)" fill="#99d7ff"/>
    <path id="Fill_159" data-name="Fill 159" d="M0,0,75,74,.091,28.891Z" transform="translate(461 112)" fill="#99d7ff"/>
    <path id="Fill_161" data-name="Fill 161" d="M0,0,19,2.021,18.847,7Z" transform="translate(444 159)" fill="#0033bf"/>
  </g>
</svg>
