<svg xmlns="http://www.w3.org/2000/svg" xmlns:xlink="http://www.w3.org/1999/xlink" width="16" height="13.672" viewBox="0 0 16 13.672">
  <defs>
    <clipPath id="clip-path">
      <path id="icon_social_twitter_24px" data-name="icon/social/twitter_24px" d="M5.636,13.671A8.857,8.857,0,0,1,1.96,12.92a7.009,7.009,0,0,1-1.426-.806A1.367,1.367,0,0,1,1.4,9.665c.254.007.491,0,.714-.01a3.346,3.346,0,0,1-.735-1.413,1.374,1.374,0,0,1-.026-.422,4.08,4.08,0,0,1-.244-.329A3.741,3.741,0,0,1,.465,5.164c0-.069,0-.069.01-.112A1.356,1.356,0,0,1,.661,4.5,4.4,4.4,0,0,1,.708,1.842,4.217,4.217,0,0,1,.961,1.2,1.367,1.367,0,0,1,3.218.932,7.108,7.108,0,0,0,6.14,3.127c.116.042.229.077.336.106A3.4,3.4,0,0,1,9.211.115a5.39,5.39,0,0,1,3.442.4c.054.025.105.051.155.077l.961-.389A1.368,1.368,0,0,1,15.63,1.7a1.359,1.359,0,0,1-.091,1.952l-.985.881a7.476,7.476,0,0,1-.593,3.139,9.995,9.995,0,0,1-3.409,4.394,8.806,8.806,0,0,1-3.176,1.411,7.572,7.572,0,0,1-1.622.2Z" transform="translate(0 0.164)" fill="#1da1f2"/>
    </clipPath>
  </defs>
  <g id="twitter" transform="translate(0 -0.164)">
    <path id="icon_social_twitter_24px-2" data-name="icon/social/twitter_24px" d="M5.636,13.671A8.857,8.857,0,0,1,1.96,12.92a7.009,7.009,0,0,1-1.426-.806A1.367,1.367,0,0,1,1.4,9.665c.254.007.491,0,.714-.01a3.346,3.346,0,0,1-.735-1.413,1.374,1.374,0,0,1-.026-.422,4.08,4.08,0,0,1-.244-.329A3.741,3.741,0,0,1,.465,5.164c0-.069,0-.069.01-.112A1.356,1.356,0,0,1,.661,4.5,4.4,4.4,0,0,1,.708,1.842,4.217,4.217,0,0,1,.961,1.2,1.367,1.367,0,0,1,3.218.932,7.108,7.108,0,0,0,6.14,3.127c.116.042.229.077.336.106A3.4,3.4,0,0,1,9.211.115a5.39,5.39,0,0,1,3.442.4c.054.025.105.051.155.077l.961-.389A1.368,1.368,0,0,1,15.63,1.7a1.359,1.359,0,0,1-.091,1.952l-.985.881a7.476,7.476,0,0,1-.593,3.139,9.995,9.995,0,0,1-3.409,4.394,8.806,8.806,0,0,1-3.176,1.411,7.572,7.572,0,0,1-1.622.2Z" transform="translate(0 0.164)" fill="#1da1f2"/>
  </g>
</svg>
