<svg id="walking" xmlns="http://www.w3.org/2000/svg" xmlns:xlink="http://www.w3.org/1999/xlink" width="668" height="756" viewBox="0 0 668 756">
  <defs>
    <clipPath id="clip-path">
      <path id="Clip_124" data-name="Clip 124" d="M0,756H668V0H0Z" fill="none"/>
    </clipPath>
  </defs>
  <path id="Fill_1" data-name="Fill 1" d="M48.541,90.182,26.194,78.571C11.985,55.818.967,29.1,0,.235A234.986,234.986,0,0,1,44.906,2.56L59.953,20.508l1.2-14.67c11.682,3,23.062,7.484,32.081,14.175l1.629,29.325,9.312-18.361a41.334,41.334,0,0,1,4.483,8.045C127.252,83.5,141,141.028,141,141.028L94.782,153A302.912,302.912,0,0,1,40.357,98.837Z" transform="translate(25 590)" fill="#ad2500"/>
  <path id="Fill_3" data-name="Fill 3" d="M85,133.044c12.644,2.647,20.665.624,23.49-.347-19.205-15-37.781-35.51-52.954-54.381q-1.025.314-2.041.576c-12.608,3.251-23.845.485-32.354-3.505Q20.416,74.2,19.7,73c8.759,4.537,20.992,8.084,34.817,4.049-4.429-5.543-8.712-11.125-12.924-16.8C30.67,61.615,18.582,57.914,9.907,54.3q-.47-1.037-.928-2.076c8.4,3.628,20.66,7.706,31.586,6.628C19.2,29.9,4.271,5.893,4.114,5.625L0,.435,4.719,3.561c.274.465,12.475,19.894,29.6,43.989C36.794,34.657,26.6,7.339,23.715,0c.553.039,1.113.079,1.675.124C28.767,8.749,39,36.611,35.48,49.182A568.026,568.026,0,0,0,73.814,97.465c2.376-6.856-13.848-43.067-6.887-60.8C71.175,25.845,69.32,15,67.145,8.039c.586.2,1.172.4,1.753.614,2.1,7.213,3.625,17.884-.566,28.558C61.318,55.077,78.88,92.218,74.9,98.666q4.2,4.642,8.514,9.11c2.072-36.858,1.615-38.032-3.35-51.15-2.855-7.547-5.553-14.672-1.688-21.194,3.354-5.661,2.546-14.952,1.1-22.285q.876.439,1.736.9c1.34,7.367,1.891,16.361-1.537,22.149-6.157,10.387,6.25,22.886,6.3,38.472.04,14.111-.961,31.684-1.131,34.577,5.881,6.009,11.894,11.7,17.965,16.872,1.437-2.018,7.194-11.521.924-26.774-5.089-12.385,2.74-31.845,8.364-43.183.25.668.494,1.34.739,2.011-5.422,11.286-12.335,29.339-7.707,40.6,6.693,16.285.387,26.235-1.165,28.324A158.331,158.331,0,0,0,126,142.869l-2.055.53q-1.943-1.162-3.888-2.422c-5.247,3.257-14.333,4.59-24.787.361a21.521,21.521,0,0,0-16.747.291q-.616-.53-1.255-1.089a23.13,23.13,0,0,1,18.573-.6c11.889,4.812,20.1,1.525,22.8.1-2.924-1.943-5.844-4.041-8.75-6.267-7.06,2.972-17.487,2.349-25.2.733a31.892,31.892,0,0,0-13.843.27q-.651-.6-1.313-1.216A33.663,33.663,0,0,1,85,133.044" transform="translate(27 591)" fill="#a7cbd3"/>
  <path id="Fill_5" data-name="Fill 5" d="M0,7.705,3.967,0A40.725,40.725,0,0,1,8.474,7.969C27.174,52.016,41,109,41,109S11.985,72.05,0,7.705" transform="translate(124 621)" fill="#195f6d"/>
  <path id="Fill_7" data-name="Fill 7" d="M132.967.387c-1.947.507-30.016-5.749-69.1,17.99A260.806,260.806,0,0,0,0,74s50.8-3.186,93.211-22.053S132.967.387,132.967.387" transform="translate(175 655)" fill="#004a58"/>
  <path id="Fill_9" data-name="Fill 9" d="M.073,66.283C22.862,39.848,60.164,8.731,96,0c-2.048,23.309-8.171,41.483-25.815,56.265C40.407,66.314,10.673,69.951,0,71c0-1.458.017-3.035.073-4.717" transform="translate(179 658)" fill="#003842"/>
  <path id="Fill_11" data-name="Fill 11" d="M4.764,136.884,27.818,151.27,10.394,113.285A205.28,205.28,0,0,1,24.411,77.223C39.911,46.866,69.816,0,69.816,0a244.244,244.244,0,0,1,33.093,48.762L87.925,74.773,110.9,66.331C162.86,195.742,64.058,318.5,64.058,318.5L38.907,325S-.49,218.908,0,183.126a269.347,269.347,0,0,1,4.759-46.242" transform="translate(126 405)" fill="#e0aa1a"/>
  <path id="Fill_13" data-name="Fill 13" d="M.854,195.019C.542,192.787.3,190.665.13,188.676c9.057,13.193,32.132,44.623,49.748,49.879q.216-2.392.467-4.791C33.711,232.078,11.753,197.672,0,177.029q.1-2.816.262-5.659c12.585,22.671,35.323,58.063,50.414,59.419a208.109,208.109,0,0,1,7.087-35.99c2.792-9.2,4.918-21.417,6.53-35.251C48.6,152.94,27.625,113.1,17.35,91.743q.733-1.837,1.5-3.644c9.5,19.944,30.922,61.012,45.8,68.317,1.11-10.168,1.957-21.125,2.6-32.344C51.81,110.3,39.025,75.984,33.494,59.331q1-1.781,2.019-3.576c4.735,14.534,17.17,49.361,31.945,64.365C70.413,63.949,69.35,3.229,69.319,2.3L69.893,0l.551,2.192c.036,1.046,3.5,77.392-1.3,138.228,23.527,1.608,43.344-19.741,53.509-33.381q.364,2.071.686,4.133a128.024,128.024,0,0,1-9.164,10.586c-10.406,10.726-21.243,17.6-31.95,20.363A41.738,41.738,0,0,1,68.9,143.412c-1.377,16.47-3.315,31.637-6.01,43.629,21.266,1.743,47.7-13.123,62.111-22.557q-.172,1.95-.371,3.887c-10.493,6.747-26.108,15.486-41.86,19.551a60.733,60.733,0,0,1-20.575,2.071q-.74,2.993-1.549,5.672c-14.633,48.252-7.694,118.11-7.007,124.575l-2.946.76c-.2-1.839-4.282-39.62-1.074-79.4C32.64,236.99,11.665,210.256.854,195.019" transform="translate(126 407)" fill="#cfd5f1"/>
  <path id="Fill_15" data-name="Fill 15" d="M24.049,130.911.6,137S-6.874,85.114,31.107,39.431l7.87,7.375L36.439,33.391q3.393-3.628,7.21-7.173l11.673,15.2L52.794,18.411A171.954,171.954,0,0,1,82,0C68.513,74.193,25.664,128.873,24.049,130.911" transform="translate(167 594)" fill="#6670a4"/>
  <path id="Fill_17" data-name="Fill 17" d="M67.015,5.373,77.541,25.81l1.916-17.1a145.925,145.925,0,0,1,21.31,8.407L105.3,27.459l4.793-5.248C129.12,33.714,145.507,51.007,154,76.9l-15.034,7.6c-.488.126-18.889,2.974-24.79,2.433C105.348,86.12,23.638,80.784,0,.748A224.392,224.392,0,0,1,67.015,5.373" transform="translate(0 657)" fill="#469aa8"/>
  <path id="Fill_19" data-name="Fill 19" d="M137,79.665,135.464,83C83.163,70.041,7.534,6.777,4.441,4.062L0,0,6.442,1.8C7.223,2.489,85.116,70.427,137,79.665" transform="translate(2 658)" fill="#a7cbd3"/>
  <path id="Fill_21" data-name="Fill 21" d="M26.642,41.244,33.38,47.5,31.206,36.119q2.908-3.08,6.174-6.086l9.993,12.9L45.212,23.407C56.543,14.566,70.672,6.519,88.279,0c0,0,9.733,53.677-7.615,82.882S25.8,117.49,25.8,117.49L.508,124S-5.877,80.008,26.642,41.244" transform="translate(174 604)" fill="#e0aa1a"/>
  <path id="Fill_23" data-name="Fill 23" d="M3.847,118.007,0,119C46.154,65.967,66.3,3.137,66.5,2.5L69,0l-.332,3.175c-.2.633-19.855,61.969-64.821,114.832" transform="translate(193 605)" fill="#f3dda3"/>
  <path id="Fill_25" data-name="Fill 25" d="M0,108.611S20.847,49.875,49.225,24.636,135,0,135,0s-5.33,12.032-14.45,28L99.221,31.042,114.2,38.705c-14.974,24.256-36.77,52.861-61.14,63.46C7.609,121.929,0,108.611,0,108.611" transform="translate(174 619)" fill="#ad2500"/>
  <path id="Fill_27" data-name="Fill 27" d="M0,107c.006-.017.264-.758,1.123-3.044,7.294-8.721,31.046-36.592,53.811-58.917.685-6.7-4.334-14.514-8.569-19.8q.939-.931,1.889-1.81c3.995,4.954,8.733,12.181,9.269,19.093,1.063-1.024,8.8-7.971,11.62-10.17.94-6.84-4.146-13.359-8.776-17.756q1.182-.682,2.394-1.326c4.362,4.275,8.917,10.321,9.071,17.031,2.772-2.061,5.572-4,8.366-5.808C84.331,18.414,82.877,11,80.9,5.811q1.256-.395,2.514-.764c1.748,4.625,3.073,10.879.98,16.808,2.5-1.521,4.982-2.943,7.416-4.269C96.41,8.955,96.682,4.213,96.243,1.875q1.287-.264,2.554-.5C99.29,4,99,8.432,95.724,15.515A264.435,264.435,0,0,1,127.6,1.531L133,0l-5.18,4.554c-.36.1-33.589,9.893-61.042,33.028,11.916-1.645,26.1,6.336,34.288,10.945,1.363.766,2.825,1.587,3.978,2.18q-.739,1.072-1.489,2.141c-1-.52-2.222-1.2-3.757-2.07-9.1-5.122-25.943-14.6-37.481-9.258-1.4,1.295-8.231,7.974-9.862,9.613,11.758-1.186,31.832,8.507,41.983,13.927q-.818,1.025-1.649,2.042C79.377,60,56.911,50.032,48.8,54.836,24.349,79.86,0,107,0,107" transform="translate(174 621)" fill="#de9c8c"/>
  <path id="Fill_29" data-name="Fill 29" d="M0,148.011C157.668-21.23,315.334,290.025,473,120.783V67.928C315.334,219.018,157.668-110.388,0,40.7Z" transform="translate(57 170)" fill="#cedeff"/>
  <path id="Fill_31" data-name="Fill 31" d="M0,8.209C47.333,28.623,94.667,60.537,142,78V71.329C94.667,53.353,47.333,20.927,0,0Z" transform="translate(230 202)" fill="#9173f1"/>
  <path id="Fill_33" data-name="Fill 33" d="M0,6.231C38,21.894,76,44.974,114,62V56.71C76,39.369,38,15.976,0,0Z" transform="translate(230 218)" fill="#9173f1"/>
  <path id="Fill_35" data-name="Fill 35" d="M0,83.246c15.333.506,30.667,3.382,46,7.754V12.415C30.667,6.491,15.333,2.059,0,0Z" transform="translate(168 178)" fill="#fff"/>
  <path id="Fill_37" data-name="Fill 37" d="M0,6.346C16.333,12.575,32.667,20.138,49,28V22.062C32.667,14.064,16.333,6.365,0,0Z" transform="translate(230 236)" fill="#9173f1"/>
  <path id="Fill_39" data-name="Fill 39" d="M0,62.618A185.46,185.46,0,0,1,30,68V7.7A194.767,194.767,0,0,0,0,0Z" transform="translate(174 188)" fill="#a98fff"/>
  <path id="Fill_41" data-name="Fill 41" d="M0,61.685c15.333,3.409,30.667,5.039,46,4.009V8.707C30.667,8.172,15.333,4.975,0,0Z" transform="translate(385 274)" fill="#fff"/>
  <path id="Fill_43" data-name="Fill 43" d="M0,45.62A163.673,163.673,0,0,0,30,49V5.685A169.3,169.3,0,0,1,0,0Z" transform="translate(392 283)" fill="#a98fff"/>
  <path id="Fill_45" data-name="Fill 45" d="M0,47C31.667,17.916,63.333,7.959,95,9.234V.173C63.333-1.448,31.667,8.162,0,36.9Z" transform="translate(62 182)" fill="#a98fff"/>
  <path id="Fill_47" data-name="Fill 47" d="M0,46C31.667,17.642,63.333,7.9,95,9.024V.145C63.333-1.317,31.667,8.082,0,36.1Z" transform="translate(64 199)" fill="#a98fff"/>
  <path id="Fill_49" data-name="Fill 49" d="M0,63q6.2-8.4,12.389-17.064-1.923.3-3.847.54c-3.823.484-6.923-1.774-6.923-4.787V35.744c0-3.021,3.1-5.549,6.923-5.9C30.72,27.765,52.9,19.554,75.076,2.565,78.9-.351,82-.941,82,1.627V6.7c0,2.559-3.1,7.409-6.924,10.457A147.288,147.288,0,0,1,43.363,36.73,207.951,207.951,0,0,1,0,63" transform="translate(438 256)" fill="#cdbdff"/>
  <path id="Fill_51" data-name="Fill 51" d="M11,5.067A11.464,11.464,0,0,0,5.5.356C2.244-.846,0,1.125,0,4.323,0,8.039,3.059,13.382,11,20c7.941-.837,11-3.75,11-7.367A9.24,9.24,0,0,0,16.5,4.6c-3.65-1.471-5.5.466-5.5.465" transform="translate(222 251)" fill="#a98fff"/>
  <path id="Fill_53" data-name="Fill 53" d="M1.538,24.371s7.493-2.656,14.443,4.283,42.236,62.04,42.236,62.04,50.82-42.584,53.955-45.714,2.452-13.469,3.133-15.51,6.948-6.8,8.584-6.8-3.133,6.8-3.133,6.8,5.723-1.36,7.63-6.8.953-19.455,3-19.455,1.907,6.938,1.907,6.938S132.473-1.325,135.2.127s2.044,10.84,2.044,10.84.818-7.755,2.59-7.755.816,9.525.816,9.525,1.5-5.58,3-5.58S141.6,29.2,138.6,34.1s-20.164,16.19-20.164,16.19S69.118,116,60.942,116,10.53,71.374,3.718,54.5s-2.18-30.132-2.18-30.132" transform="translate(383 257)" fill="#fd5e5a"/>
  <path id="Fill_55" data-name="Fill 55" d="M14.335,46.978,1.943,45.217A2.326,2.326,0,0,1,.009,42.688L3.4,2.142A2.269,2.269,0,0,1,5.935.022L22.057,2.315a2.332,2.332,0,0,1,1.9,2.752L16.847,45.083a2.26,2.26,0,0,1-2.512,1.9" transform="translate(502 242)" fill="#111f59"/>
  <path id="Fill_57" data-name="Fill 57" d="M2.9,0,0,30.021,11.4,31,17,2.469Z" transform="translate(506 247)" fill="#749cfe"/>
  <path id="Fill_59" data-name="Fill 59" d="M361,19c0,10.492-80.812,19-180.5,19S0,29.492,0,19,80.814,0,180.5,0,361,8.508,361,19" transform="translate(132 718)" fill="#235893"/>
  <path id="Fill_61" data-name="Fill 61" d="M14.414,0S25.642,41.65,25.642,58.995s20.5,16.163,19.339,12A7.1,7.1,0,0,1,46.4,78.834c-1.933,4.772-7.089,5.289-7.089,5.289s2.32,3.483.13,6.707-7.6,8.643-16.369,4.9S0,65.945,0,65.945Z" transform="translate(380 213)" fill="#0e1b29"/>
  <path id="Fill_63" data-name="Fill 63" d="M48.179.066S66.4,2.62,69.356,20.551,64.729,72.96,54.289,81.093,40.319,114.574,31.4,120.525s-28.569,5.6-25.13-11.832c0,0,8.838,3.924,13.323-6.47,0,0-14.947,5.845-18.9-8.282S10.923,81.333,10.923,81.333s-8.476,7.525.076,7.2,14.728-6.71,16.576-16.068-13.2-6.085-8.37-23S42.2-1.71,48.179.066" transform="translate(322 204)" fill="#0e1b29"/>
  <path id="Fill_65" data-name="Fill 65" d="M12.175,0C11.1,1.03,0,31.269,0,31.269L20.41,33l.015-12.218L24,2.749Z" transform="translate(244 693)" fill="#fc7575"/>
  <path id="Fill_67" data-name="Fill 67" d="M0,10.5,10.261,31,24,17.094,10.435,0Z" transform="translate(456 696)" fill="#fc7575"/>
  <path id="Fill_69" data-name="Fill 69" d="M138,15.4S98.256,95.075,89.221,120.635,78.029,152.21,59.958,181.557,19.217,277,19.217,277H0S17.084,162.355,41.179,139.633,87.688,0,87.688,0l44.556,5.477Z" transform="translate(247 429)" fill="#45156e"/>
  <path id="Fill_71" data-name="Fill 71" d="M23.02,0S0,23.362,0,38.829,74.566,151.957,74.566,164.694s6.57,46.96,14.781,63.334S128.93,309,128.93,309L148,292.217s-36.489-92.388-36.489-111.493-12.128-49.986-22.163-70.91S51.7,20.012,51.7,20.012Z" transform="translate(328 409)" fill="#9070a9"/>
  <path id="Fill_73" data-name="Fill 73" d="M56.84.805S32.6-2.68,28.186,7.045c-5.014,11.04,4.731,28.411,6.98,47.4,4.227,35.71,2.613,60.46-6.98,68.862C14.142,135.6,0,162.827,0,162.827s49.813,12.553,79.406,8.289c0,0-3.467-24.715-.932-46.121C81.8,96.85,94,66.514,94,55.918c0-18.654-4.517-21.409-21.214-53.154C70.3-1.962,56.84.805,56.84.805" transform="translate(320 279)" fill="#fac338"/>
  <path id="Fill_75" data-name="Fill 75" d="M6.91,168C-6.386,96.234,27.071,71.177,18.916,39.335,16.432,30.029,7.706,16.471,0,0,27.585,43.1,28.505,42.195,17.2,82.222,7.308,116,4.447,131.757,6.91,168" transform="translate(392 282)" fill="#fff7cf"/>
  <path id="Fill_77" data-name="Fill 77" d="M39.656,113.5c0-8.267,18.854-4.146,7.949-14.979s2.68-39.784,2.68-54.688S29.9,0,29.9,0l-2.78,9.5c.081,10.66,6.69,24.7,8.5,39.767,4.282,35.632,2.647,60.328-7.069,68.711C14.326,130.244,0,157.412,0,157.412A384.106,384.106,0,0,0,42.353,165c5.966-18.62-2.7-43.742-2.7-51.5" transform="translate(318 285)" fill="#a67076"/>
  <path id="Fill_79" data-name="Fill 79" d="M23.088,6.792s-9.031,37.472-6.556,39.976C19.327,49.6,24,61,24,61S3.058,46.731,0,37.275L4.524,0Z" transform="translate(376 241)" fill="#fc7575"/>
  <path id="Fill_81" data-name="Fill 81" d="M.9,0,20,6.809S19.511,8.84,18.787,12C12.45,11.527,2.672,10.311,0,7.268Z" transform="translate(380 241)" fill="#fd5e5a"/>
  <path id="Fill_83" data-name="Fill 83" d="M0,12l27.752,9s5.221-.908,4.087-6.751S23.214,3.942,16.069,1.888A61.157,61.157,0,0,0,.5,0Z" transform="translate(379 201)" fill="#0e1b29"/>
  <path id="Fill_85" data-name="Fill 85" d="M2.5,5h0a2.5,2.5,0,1,1,.962-.193A2.5,2.5,0,0,1,2.5,5ZM2.5.475a2.026,2.026,0,0,0,0,4.051A2.026,2.026,0,1,0,2.5.475Z" transform="translate(357 425)"/>
  <path id="Fill_87" data-name="Fill 87" d="M3.518,37.747C-.064,79.109,35.777,104.222,52.657,84,66.414,68.479,70.969,43.434,71.7,22.377c.252-6.173.653-14.989-2.668-20.548L70.456,0c3.848,5.943,3.659,16.337,3.453,22.511-.6,21.617-5.117,47.151-19.271,63.361C36.1,108.277-3.282,81.843.219,37.382Z" transform="translate(290 427)" fill="#853846"/>
  <path id="Fill_89" data-name="Fill 89" d="M7.19,32,0,29.257,14,0Z" transform="translate(344 430)"/>
  <path id="Fill_91" data-name="Fill 91" d="M18.654,0C16.207,3.008,0,46.675,0,46.675S54.568,66.845,74.543,69L92,18.381Z" transform="translate(267 411)" fill="#b14a5d"/>
  <path id="Fill_93" data-name="Fill 93" d="M0,36S11.835,4.349,16.749,0L54,7.744,17.442,1.69S11.085,8.634,0,36" transform="translate(272 419)" fill="#d38792"/>
  <path id="Fill_95" data-name="Fill 95" d="M70.978,19.747c-.485-8.221-3.51-13.345-6.843-16.519A12.217,12.217,0,0,0,46.592,4.274C30.7,22.475,1.415,76.017.112,88.761c-1.578,15.42,14.059,72.457,10.9,79.195s-2,21.715.148,21.715,7.024,1.19,9.032,1.19,4.646,2.134,6.153.562c.282-.3-.064-2.5-.036-3.821,2.624,1.187,5.076,4.588,5.974,3.7,1.471-1.462-.52-2.665-2.607-6.276s-4.452-14.676-4.452-14.676c-.558-5.236-5.079-77.044-1.268-88.693C27.976,69.38,72.126,39.209,70.978,19.747" transform="translate(299 285)" fill="#fc7575"/>
  <path id="Fill_97" data-name="Fill 97" d="M14.123,0S24.14-.244,27.643,3.9s6.366,15.132,9.476,17.247A22.8,22.8,0,0,0,42.607,24s.925.478-1.421,2.31-1.3,3.125.316,2.805,2.061,2.808.889,3.413A2.946,2.946,0,0,1,43.5,34.9a2.015,2.015,0,0,1-1.188,2.023,7.745,7.745,0,0,0,1.118,4.1C44.623,42.771,45.183,48,32.007,48c0,0-19.724-.746-21.888-5.908S-4.221,19.033,1.527,10.381,14.123,0,14.123,0" transform="translate(372 204)" fill="#fc7575"/>
  <path id="Fill_99" data-name="Fill 99" d="M19.359.008c1.665-.327,14.681,8.9,13.574,18.414s-8.674,6.85-12.495,10.08S23.893,41.772,24,46.4,17.074,79,17.074,79-3.619,26.851.557,15.616,19.359.008,19.359.008" transform="translate(359 200)" fill="#1b3753"/>
  <path id="Fill_101" data-name="Fill 101" d="M6.6,5.068S1.724-1.527.443.329.518,13.039,6.343,13,6.6,5.068,6.6,5.068" transform="translate(374 224)" fill="#fc7575"/>
  <path id="Fill_103" data-name="Fill 103" d="M35.771,22.357S39.48,84.628,17.028,87.729-.688,66.437,3.577,62.23c0,0,1.373,7.589,5.988,6.072s3.453-.305.383-10.018,6.158-6.955,11.387-15.924-8-15.419-7.691-23.236S11.681,0,11.681,0Z" transform="translate(347 224)" fill="#1b3753"/>
  <path id="Fill_105" data-name="Fill 105" d="M2,2c0,1.106-.448,2-1,2S0,3.106,0,2,.448,0,1,0,2,.9,2,2" transform="translate(405 222)" fill="#1b3753"/>
  <path id="Fill_107" data-name="Fill 107" d="M57,2.72S32.853,24.41,27.852,26.025s-8.4,8.425-13.039,10.754S0,22.228,0,22.228l15.545-17S19.1,6.812,32.138,3.765,55.963-2.388,57,2.72" transform="translate(464 704)" fill="#e9bbbd"/>
  <path id="Fill_109" data-name="Fill 109" d="M26.345,5.12s2.273,1.957,5.849,5.542c4.242,4.253,25.2,17.088,22.579,19.717S24.546,32.205,22,29.649s-9.76-5.7-15.15-5.7S0,19.132,0,13.73,7.72,0,7.72,0Z" transform="translate(240 713)" fill="#e9bbbd"/>
  <path id="Fill_111" data-name="Fill 111" d="M4.986,0S5.518,3.971,0,8Z" transform="translate(402 218)" fill="#1b3753"/>
  <path id="Fill_113" data-name="Fill 113" d="M.023,4.127c.26,1.535,2.7,2.274,5.448,1.652s4.767-2.37,4.507-3.907S7.278-.4,4.529.221-.237,2.593.023,4.127" transform="translate(394 229)" fill="#fd5e5a"/>
  <path id="Fill_115" data-name="Fill 115" d="M8,.614A12.2,12.2,0,0,0,3.371.074C1.473.4-.127,1.386.008,2A8.482,8.482,0,0,1,3.588.708c1.692-.059,2.706.926,3.363.812A1.766,1.766,0,0,0,8,.614" transform="translate(396 218)" fill="#1b3753"/>
  <path id="Fill_117" data-name="Fill 117" d="M.048,1.86s3-2.667,15.8-1.614S34,13,34,13s-8.841-3.659-13.75-2.719S3.868,11.525,1.712,10.109.048,1.86.048,1.86" transform="translate(376 199)" fill="#1b3753"/>
  <path id="Fill_119" data-name="Fill 119" d="M16.416,7.63C11.806,3.044,1.052,2.077.946,2.068A1.034,1.034,0,0,1,1.122.007c.473.039,11.616,1.038,16.763,6.159,4.668,4.643,26.348,5.781,28.341,4A1.038,1.038,0,0,1,47.7,11.632c-2.8,2.791-26.009,1.24-31.279-4" transform="translate(241 730)" fill="#b880a7"/>
  <path id="Fill_121" data-name="Fill 121" d="M1.052,30A1.051,1.051,0,0,1,.5,29.843,1.024,1.024,0,0,1,.16,28.419c.208-.329,5.212-8.114,13.387-10.613C21.267,15.444,36.587,2.862,38.047.5A1.062,1.062,0,0,1,39.493.151a1.024,1.024,0,0,1,.354,1.421C38.025,4.519,22.079,17.363,14.172,19.781,6.758,22.048,1.993,29.438,1.945,29.514A1.055,1.055,0,0,1,1.052,30" transform="translate(476 707)" fill="#b880a7"/>
  <path id="Clip_124-2" data-name="Clip 124" d="M0,756H668V0H0Z" fill="none"/>
  <g id="Group_172" data-name="Group 172" clip-path="url(#clip-path)">
    <path id="Fill_123" data-name="Fill 123" d="M0,42H67V0H0Z" transform="translate(512 169)" fill="#95b3ff"/>
    <path id="Fill_125" data-name="Fill 125" d="M53,0H0L26.057,25Z" transform="translate(520 172)" fill="#fff"/>
    <path id="Fill_126" data-name="Fill 126" d="M29.975,28.018,0,0V32H60V.877Z" transform="translate(516 174)" fill="#fff"/>
    <path id="Fill_127" data-name="Fill 127" d="M28.807,6.791C86.382,25.583,111.278,58.965,78.184,142.2a240.326,240.326,0,0,1-11.815,25.568.429.429,0,0,1-.753-.412c17.242-40.93,41.294-99.385,10.469-131.473C49.649,8.284-4.064,1.707,1.057,2.494A1.254,1.254,0,0,1,1.434.015,191.6,191.6,0,0,1,28.807,6.791" transform="translate(467 99)" fill="#95b3ff"/>
    <path id="Fill_128" data-name="Fill 128" d="M89.056,87.219c2.626,11.864,2.285,19.6.781,27.084A61.212,61.212,0,0,1,88,120.346C75.648,153.8,28.513,196.208.65,217.915a.4.4,0,0,1-.563-.073.416.416,0,0,1,.075-.572c23.432-18.495,47.045-41.335,59.721-56.336,13.163-15.043,20.206-27.682,19.457-26.43,10.294-17.517,17.117-35.486-3.564-77.533-14.8-29.9-36.12-55.331-35.788-54.927A1.257,1.257,0,0,1,40.153.287,1.233,1.233,0,0,1,41.9.452C60.177,22.721,82.561,58.671,89.056,87.219" transform="translate(533 52)" fill="#95b3ff"/>
    <path id="Fill_129" data-name="Fill 129" d="M0,30H48V0H0Z" transform="translate(437 46)" fill="#95b3ff"/>
    <path id="Fill_130" data-name="Fill 130" d="M38,0H0L18.682,18Z" transform="translate(443 48)" fill="#fff"/>
    <path id="Fill_131" data-name="Fill 131" d="M21.482,21.014,0,0V24H43V.657Z" transform="translate(440 50)" fill="#fff"/>
    <path id="Fill_132" data-name="Fill 132" d="M0,42H67V0H0Z" transform="translate(379 88)" fill="#95b3ff"/>
    <path id="Fill_133" data-name="Fill 133" d="M53,0H0L26.057,25Z" transform="translate(386 91)" fill="#fff"/>
    <path id="Fill_134" data-name="Fill 134" d="M29.975,28.018,0,0V32H60V.877Z" transform="translate(383 94)" fill="#fff"/>
    <path id="Fill_135" data-name="Fill 135" d="M0,42H67V0H0Z" transform="translate(507 96)" fill="#95b3ff"/>
    <path id="Fill_136" data-name="Fill 136" d="M53,0H0L26.057,25Z" transform="translate(514 100)" fill="#fff"/>
    <path id="Fill_137" data-name="Fill 137" d="M29.975,28.018,0,0V32H60V.877Z" transform="translate(511 103)" fill="#fff"/>
    <path id="Fill_138" data-name="Fill 138" d="M0,42H67V0H0Z" transform="translate(289 131)" fill="#95b3ff"/>
    <path id="Fill_139" data-name="Fill 139" d="M53,0H0L26.057,25Z" transform="translate(297 135)" fill="#fff"/>
    <path id="Fill_140" data-name="Fill 140" d="M29.975,28.018,0,0V32H60V.877Z" transform="translate(292 138)" fill="#fff"/>
    <path id="Fill_141" data-name="Fill 141" d="M0,42H67V0H0Z" transform="translate(225 190)" fill="#95b3ff"/>
    <path id="Fill_142" data-name="Fill 142" d="M53,0H0L26.057,25Z" transform="translate(233 193)" fill="#fff"/>
    <path id="Fill_143" data-name="Fill 143" d="M29.975,28.018,0,0V32H60V.877Z" transform="translate(229 196)" fill="#fff"/>
    <path id="Fill_144" data-name="Fill 144" d="M0,29H47V0H0Z" transform="translate(228 92)" fill="#95b3ff"/>
    <path id="Fill_145" data-name="Fill 145" d="M37,0H0L18.191,17Z" transform="translate(234 94)" fill="#fff"/>
    <path id="Fill_146" data-name="Fill 146" d="M20.982,20.138,0,0V23H42V.631Z" transform="translate(231 96)" fill="#fff"/>
    <path id="Fill_147" data-name="Fill 147" d="M0,29H47V0H0Z" transform="translate(153 252)" fill="#95b3ff"/>
    <path id="Fill_148" data-name="Fill 148" d="M37,0H0L18.191,17Z" transform="translate(158 254)" fill="#fff"/>
    <path id="Fill_149" data-name="Fill 149" d="M20.983,20.138,0,0V23H42V.63Z" transform="translate(155 255)" fill="#fff"/>
    <path id="Fill_150" data-name="Fill 150" d="M0,29H47V0H0Z" transform="translate(45 328)" fill="#95b3ff"/>
    <path id="Fill_151" data-name="Fill 151" d="M37,0H0L18.191,17Z" transform="translate(51 331)" fill="#fff"/>
    <path id="Fill_152" data-name="Fill 152" d="M20.983,20.138,0,0V23H42V.63Z" transform="translate(48 333)" fill="#fff"/>
    <path id="Fill_153" data-name="Fill 153" d="M0,48H76V0H0Z" transform="translate(555 58)" fill="#95b3ff"/>
    <path id="Fill_154" data-name="Fill 154" d="M59,0H0L29.005,27Z" transform="translate(565 63)" fill="#fff"/>
    <path id="Fill_155" data-name="Fill 155" d="M33.972,32.4,0,0V37H68V1.016Z" transform="translate(560 65)" fill="#fff"/>
    <path id="Fill_156" data-name="Fill 156" d="M0,48H76V0H0Z" transform="translate(536)" fill="#95b3ff"/>
    <path id="Fill_157" data-name="Fill 157" d="M59,0H0L29.007,27Z" transform="translate(546 5)" fill="#fff"/>
    <path id="Fill_158" data-name="Fill 158" d="M33.973,32.4,0,0V37H68V1.016Z" transform="translate(541 6)" fill="#fff"/>
    <path id="Fill_159" data-name="Fill 159" d="M0,41H65V0H0Z" transform="translate(526 222)" fill="#95b3ff"/>
    <path id="Fill_160" data-name="Fill 160" d="M50,0H0L24.581,24Z" transform="translate(533 226)" fill="#fff"/>
    <path id="Fill_161" data-name="Fill 161" d="M28.476,27.143,0,0V31H57V.851Z" transform="translate(530 228)" fill="#fff"/>
    <path id="Fill_162" data-name="Fill 162" d="M0,41H65V0H0Z" transform="translate(603 86)" fill="#95b3ff"/>
    <path id="Fill_163" data-name="Fill 163" d="M50,0H0L24.582,24Z" transform="translate(610 89)" fill="#fff"/>
    <path id="Fill_164" data-name="Fill 164" d="M28.476,27.142,0,0V31H57V.85Z" transform="translate(607 91)" fill="#fff"/>
    <path id="Fill_165" data-name="Fill 165" d="M0,41H65V0H0Z" transform="translate(583 152)" fill="#95b3ff"/>
    <path id="Fill_166" data-name="Fill 166" d="M50,0H0L24.582,24Z" transform="translate(591 156)" fill="#fff"/>
    <path id="Fill_167" data-name="Fill 167" d="M28.476,27.142,0,0V31H57V.85Z" transform="translate(587 158)" fill="#fff"/>
    <path id="Fill_168" data-name="Fill 168" d="M0,44H70V0H0Z" transform="translate(451 137)" fill="#95b3ff"/>
    <path id="Fill_169" data-name="Fill 169" d="M55,0H0L27.039,25Z" transform="translate(460 142)" fill="#fff"/>
    <path id="Fill_170" data-name="Fill 170" d="M30.975,29.769,0,0V34H62V.934Z" transform="translate(455 143)" fill="#fff"/>
    <path id="Fill_171" data-name="Fill 171" d="M3.5,3.051S.928-1.011.155.239,1.677,8.267,2.97,7.992s1.247-2.769.53-4.94" transform="translate(377 227)" fill="#fd5e5a"/>
  </g>
</svg>
